<svg width="16" height="19" viewBox="0 0 16 19" fill="none" xmlns="http://www.w3.org/2000/svg">
<path fill-rule="evenodd" clip-rule="evenodd" d="M10.5335 2.9082C10.8868 2.51575 11.1567 2.05553 11.3268 1.55566C11.497 1.0558 11.5639 0.52649 11.5235 0C10.4498 0.095387 9.45084 0.589289 8.72348 1.38477C8.36836 1.75797 8.0951 2.20161 7.92118 2.68652C7.74725 3.17144 7.67651 3.68734 7.71348 4.20117C8.25103 4.21221 8.78413 4.10134 9.27296 3.87744C9.76179 3.65355 10.1937 3.32245 10.5365 2.9082M12.9365 9.68799C12.9528 10.4849 13.2037 11.2595 13.6578 11.9146C14.1119 12.5696 14.749 13.0762 15.4895 13.3711C15.1832 14.2986 14.7396 15.1751 14.1735 15.9712C13.3805 17.0712 12.5575 18.1861 11.2605 18.2041C9.98647 18.2311 9.57648 17.4839 8.11948 17.4839C6.66248 17.4839 6.20747 18.184 5.00247 18.231C3.75047 18.276 2.79747 17.0308 2.00247 15.9238C0.367475 13.6548 -0.881527 9.52382 0.796473 6.73682C1.20516 6.05295 1.78097 5.48421 2.46982 5.08398C3.15868 4.68376 3.93796 4.46557 4.73448 4.44922C5.96248 4.43122 7.12348 5.24219 7.87448 5.24219C8.62548 5.24219 10.0355 4.26709 11.5175 4.41309C12.1958 4.43064 12.8614 4.60181 13.4642 4.91357C14.0669 5.22534 14.5911 5.66939 14.9975 6.21289C14.385 6.56637 13.8741 7.07165 13.514 7.68018C13.1538 8.28871 12.9566 8.98006 12.9415 9.68701" fill="#2D2D2D"/>
</svg>
