<svg width="24" height="24" viewBox="0 0 24 24" fill="none" xmlns="http://www.w3.org/2000/svg">
<path d="M20.0269 3.76341C18.418 2.15645 16.3689 1.06253 14.1385 0.61989C11.9081 0.177254 9.59649 0.405781 7.49592 1.27659C5.39536 2.14739 3.6001 3.62138 2.33706 5.51225C1.07402 7.40313 0.399902 9.626 0.399902 11.8999C0.399902 14.1738 1.07402 16.3967 2.33706 18.2876C3.6001 20.1784 5.39536 21.6524 7.49592 22.5232C9.59649 23.394 11.9081 23.6226 14.1385 23.1799C16.3689 22.7373 18.418 21.6434 20.0269 20.0364C21.0962 18.9684 21.9445 17.7 22.5232 16.3039C23.102 14.9078 23.3999 13.4112 23.3999 11.8999C23.3999 10.3886 23.102 8.89205 22.5232 7.49593C21.9445 6.09981 21.0962 4.83146 20.0269 3.76341ZM21.4159 10.8754C20.2662 11.0147 19.0999 10.8907 18.0052 10.5127C16.9105 10.1348 15.9161 9.51289 15.0973 8.69401C14.2784 7.87512 13.6564 6.88073 13.2785 5.78605C12.9006 4.69137 12.7766 3.52508 12.9159 2.37541C15.0919 2.60437 17.1234 3.57349 18.6706 5.12068C20.2178 6.66788 21.1869 8.69936 21.4159 10.8754ZM2.36486 12.9234C3.51453 12.7841 4.68082 12.9082 5.7755 13.2861C6.87018 13.664 7.86457 14.2859 8.68346 15.1048C9.50234 15.9237 10.1243 16.9181 10.5022 18.0128C10.8801 19.1074 11.0041 20.2737 10.8649 21.4234C8.6888 21.1944 6.65732 20.2253 5.11013 18.6781C3.56293 17.1309 2.59382 15.0995 2.36486 12.9234ZM18.6709 18.6764C17.0956 20.2553 15.0168 21.2323 12.7959 21.4374C12.9333 20.0311 12.7573 18.6117 12.2805 17.2815C11.8038 15.9514 11.0381 14.7434 10.0386 13.7445C9.03906 12.7457 7.83058 11.9808 6.50007 11.5049C5.16956 11.0291 3.75011 10.854 2.34386 10.9924C2.55213 8.7721 3.52934 6.69426 5.10669 5.11784C6.68403 3.54141 8.76243 2.5654 10.9829 2.35841C10.854 3.68794 11.0047 5.02973 11.4252 6.29755C11.8458 7.56537 12.527 8.73118 13.425 9.72006C14.323 10.7089 15.4179 11.499 16.6395 12.0395C17.861 12.58 19.1821 12.8589 20.5179 12.8584C20.8179 12.8584 21.1269 12.8434 21.4319 12.8144C21.2235 15.0324 20.2457 17.1077 18.6679 18.6804L18.6709 18.6764Z" fill="#D0D0D0" stroke="white" stroke-width="0.8"/>
</svg>
