<svg width="19" height="20" viewBox="0 0 19 20" fill="none" xmlns="http://www.w3.org/2000/svg">
<path d="M6.35617 19.2728H12.6152M15.7432 6.33982C15.7387 5.56288 15.5741 4.7952 15.2596 4.08476C14.9451 3.37432 14.4874 2.73638 13.9152 2.21082C12.7043 1.10998 11.1266 0.5 9.49017 0.5C7.85371 0.5 6.27601 1.10998 5.06517 2.21082C4.49131 2.73559 4.03196 3.37317 3.71587 4.08365C3.39977 4.79413 3.23374 5.56221 3.22817 6.33982C3.29819 8.48961 2.76619 10.6162 1.69217 12.4798C1.21067 13.1447 0.810493 13.8648 0.50017 14.6248C0.498013 14.7003 0.51641 14.775 0.553397 14.8409C0.590384 14.9068 0.644572 14.9613 0.71017 14.9988C1.40471 15.1276 2.11355 15.1612 2.81717 15.0988H16.1542C16.8578 15.1612 17.5666 15.1276 18.2612 14.9988C18.3268 14.9613 18.381 14.9068 18.4179 14.8409C18.4549 14.775 18.4733 14.7003 18.4712 14.6248C18.1608 13.8648 17.7606 13.1447 17.2792 12.4798C16.2051 10.6162 15.6731 8.48962 15.7432 6.33982Z" stroke="#1E1B1C" stroke-linecap="round" stroke-linejoin="round"/>
</svg>
