<svg width="17" height="19" viewBox="0 0 17 19" fill="none" xmlns="http://www.w3.org/2000/svg">
<path fill-rule="evenodd" clip-rule="evenodd" d="M8.3659 0.262067C6.97591 0.225161 5.58496 0.273585 4.2009 0.407067C3.20934 0.476185 2.27164 0.883956 1.5449 1.56207C0.87306 2.30017 0.471202 3.24419 0.404903 4.24007C0.273075 5.63861 0.225322 7.0438 0.261903 8.44807V12.7121C0.261903 13.9731 0.261903 14.9701 0.341903 15.7221C0.352358 16.411 0.614089 17.0725 1.0779 17.5821C1.46754 17.9414 1.9613 18.1677 2.4879 18.2281C3.17536 18.2458 3.84493 18.0078 4.3669 17.5601C4.9799 17.1261 5.7229 16.4681 6.6609 15.6391L6.6919 15.6121C7.1269 15.2271 7.4209 14.9681 7.6669 14.7881C7.81246 14.6655 7.98314 14.5764 8.1669 14.5271C8.32795 14.4946 8.49386 14.4946 8.6549 14.5271C8.83866 14.5764 9.00935 14.6655 9.1549 14.7881C9.4009 14.9681 9.6949 15.2271 10.1299 15.6121L10.1609 15.6391C11.0989 16.4681 11.8419 17.1261 12.4549 17.5601C12.9769 18.0078 13.6465 18.2458 14.3339 18.2281C14.8605 18.1677 15.3543 17.9414 15.7439 17.5821C16.2076 17.0724 16.4694 16.411 16.4799 15.7221C16.5599 14.9711 16.5599 13.9731 16.5599 12.7121V8.44807C16.5965 7.04347 16.5488 5.63794 16.4169 4.23907C16.3506 3.24319 15.9487 2.29917 15.2769 1.56107C14.5502 0.882956 13.6125 0.475185 12.6209 0.406067C11.2388 0.273161 9.84988 0.225071 8.4619 0.262067H8.3659ZM2.4369 2.44407C2.97037 1.96437 3.65328 1.68386 4.3699 1.65007C5.71323 1.52281 7.06302 1.47673 8.4119 1.51207C9.76137 1.47532 11.1118 1.52007 12.4559 1.64607C13.1725 1.67986 13.8554 1.96037 14.3889 2.44007C14.8667 2.98525 15.1446 3.67687 15.1769 4.40107C15.3014 5.76061 15.3455 7.12632 15.3089 8.49107V12.6661C15.3089 13.9761 15.3089 14.9061 15.2359 15.5831C15.1619 16.2761 15.0249 16.5371 14.8969 16.6541C14.7035 16.8327 14.4584 16.9455 14.1969 16.9761C14.0299 16.9951 13.7499 16.9311 13.1859 16.5311C12.6219 16.1311 11.9429 15.5311 10.9669 14.6671L10.9449 14.6481C10.5379 14.2881 10.1999 13.9891 9.9009 13.7711C9.60717 13.5395 9.26558 13.3762 8.9009 13.2931C8.57649 13.2277 8.24231 13.2277 7.9179 13.2931C7.55323 13.3762 7.21163 13.5395 6.9179 13.7711C6.6179 13.9891 6.2819 14.2881 5.8739 14.6481L5.8519 14.6671C4.8769 15.5301 4.1839 16.1411 3.6329 16.5311C3.0819 16.9211 2.7889 16.9951 2.6219 16.9761C2.36039 16.9455 2.11532 16.8327 1.9219 16.6541C1.7939 16.5361 1.6579 16.2761 1.5839 15.5831C1.5169 14.9121 1.5119 13.9801 1.5119 12.6711V8.49607C1.47531 7.13132 1.51938 5.76561 1.6439 4.40607C1.67737 3.6809 1.95709 2.98883 2.4369 2.44407Z" fill="white" stroke="white" stroke-width="0.5"/>
</svg>
