<svg width="21" height="20" viewBox="0 0 21 20" fill="none" xmlns="http://www.w3.org/2000/svg">
<path d="M0.5 9.54895C0.5 5.95695 0.5 4.16095 1.616 3.04895C2.732 1.93695 4.528 1.92896 8.12 1.92896H11.93C15.522 1.92896 17.318 1.92896 18.43 3.04496C19.542 4.16096 19.546 5.95696 19.546 9.54496V11.45C19.546 15.042 19.546 16.838 18.43 17.95C17.314 19.062 15.518 19.066 11.93 19.066H8.12C4.528 19.066 2.732 19.066 1.62 17.95C0.508 16.834 0.5 15.046 0.5 11.454V9.54895Z" stroke="#1E1B1C"/>
<path d="M5.26294 1.929V0.5" stroke="#1E1B1C" stroke-linecap="round"/>
<path d="M14.7881 1.929V0.5" stroke="#1E1B1C" stroke-linecap="round"/>
<path d="M0.976074 6.69092H19.0761" stroke="#1E1B1C" stroke-linecap="round"/>
<path d="M7.73608 9.81689H5.73608C5.1838 9.81689 4.73608 10.2646 4.73608 10.8169V12.8169C4.73608 13.3692 5.1838 13.8169 5.73608 13.8169H7.73608C8.28837 13.8169 8.73608 13.3692 8.73608 12.8169V10.8169C8.73608 10.2646 8.28837 9.81689 7.73608 9.81689Z" stroke="#1E1B1C"/>
<path d="M14.7361 9.81689H12.7361C12.1838 9.81689 11.7361 10.2646 11.7361 10.8169V12.8169C11.7361 13.3692 12.1838 13.8169 12.7361 13.8169H14.7361C15.2884 13.8169 15.7361 13.3692 15.7361 12.8169V10.8169C15.7361 10.2646 15.2884 9.81689 14.7361 9.81689Z" stroke="#1E1B1C"/>
</svg>
