<svg width="10" height="17" viewBox="0 0 10 17" fill="none" xmlns="http://www.w3.org/2000/svg">
<path d="M0.489014 8.9827L7.83701 16.3317C7.99163 16.4867 8.2015 16.574 8.42045 16.5742C8.6394 16.5745 8.84949 16.4878 9.00451 16.3332C9.15953 16.1786 9.24678 15.9687 9.24706 15.7498C9.24734 15.5308 9.16063 15.3207 9.00601 15.1657L2.23701 8.3997L9.00401 1.6337C9.14766 1.47676 9.22521 1.27045 9.22051 1.05775C9.21581 0.845051 9.12922 0.642368 8.97878 0.49193C8.82834 0.341492 8.62566 0.254902 8.41296 0.250202C8.20026 0.245501 7.99395 0.323053 7.83701 0.466698L0.488015 7.8157C0.335279 7.97158 0.249813 8.18117 0.25 8.3994C0.250187 8.61764 0.336012 8.82708 0.489014 8.9827Z" fill="#1E1B1C" stroke="white" stroke-width="0.5"/>
</svg>
