<svg width="19" height="19" viewBox="0 0 19 19" fill="none" xmlns="http://www.w3.org/2000/svg">
<path d="M9.09219 12.5002C4.15719 12.5002 3.28219 7.57821 3.12719 3.67621C3.08419 2.59121 3.06219 2.04821 3.47019 1.54621C3.87819 1.04421 4.37019 0.962212 5.34119 0.797212C6.58109 0.594117 7.83577 0.494773 9.09219 0.500212C10.3487 0.495764 11.6034 0.596112 12.8432 0.800212C13.8192 0.965212 14.3072 1.04721 14.7142 1.54921C15.1212 2.05121 15.1002 2.59421 15.0572 3.67921C14.9032 7.57821 14.0282 12.5002 9.09219 12.5002Z" stroke="#1F1B1C"/>
<path d="M15.0912 3.07129L15.9042 3.34229C16.7522 3.62529 17.1772 3.76629 17.4192 4.10329C17.6612 4.44029 17.6622 4.88729 17.6622 5.78129V5.84329C17.7238 6.32012 17.6625 6.80479 17.4842 7.25129C17.3062 7.55129 16.9842 7.73229 16.3392 8.09029L13.8062 9.49829" stroke="#1F1B1C"/>
<path d="M3.09424 3.07129L2.28124 3.34229C1.43324 3.62529 1.00824 3.76629 0.766242 4.10329C0.524242 4.44029 0.523242 4.88729 0.523242 5.78129V5.84329C0.461664 6.32012 0.522935 6.80478 0.701242 7.25129C0.879242 7.55129 1.20124 7.73229 1.84624 8.09029L4.38024 9.49829" stroke="#1F1B1C"/>
<path d="M9.09229 13.3542V15.0682" stroke="#1F1B1C" stroke-linecap="round"/>
<path d="M12.0933 17.6383H6.09326L6.38426 16.1853C6.42309 15.9911 6.52799 15.8163 6.68113 15.6907C6.83427 15.5651 7.0262 15.4964 7.22426 15.4963H10.9613C11.1593 15.4964 11.3513 15.5651 11.5044 15.6907C11.6575 15.8163 11.7624 15.9911 11.8013 16.1853L12.0933 17.6383Z" stroke="#1F1B1C" stroke-linecap="round" stroke-linejoin="round"/>
<path d="M14.2342 17.6392H3.95117" stroke="#1F1B1C" stroke-linecap="round"/>
</svg>
