<svg width="15" height="15" viewBox="0 0 15 15" fill="none" xmlns="http://www.w3.org/2000/svg">
<path fill-rule="evenodd" clip-rule="evenodd" d="M7.131 0.995003C5.91741 0.995003 4.73108 1.35487 3.72202 2.02911C2.71296 2.70334 1.92649 3.66165 1.46208 4.78286C0.997656 5.90407 0.876143 7.13781 1.1129 8.32808C1.34966 9.51834 1.93406 10.6117 2.79219 11.4698C3.65033 12.3279 4.74366 12.9123 5.93393 13.1491C7.12419 13.3859 8.35794 13.2643 9.47915 12.7999C10.6004 12.3355 11.5587 11.549 12.2329 10.54C12.9071 9.53092 13.267 8.34459 13.267 7.131C13.267 5.50363 12.6205 3.94292 11.4698 2.7922C10.3191 1.64147 8.75837 0.995003 7.131 0.995003ZM0 7.131C0 5.72062 0.418226 4.34192 1.20179 3.16923C1.98535 1.99654 3.09906 1.08255 4.40208 0.542818C5.7051 0.00308979 7.13891 -0.138128 8.52219 0.137023C9.90547 0.412175 11.1761 1.09134 12.1734 2.08862C13.1707 3.08591 13.8498 4.35654 14.125 5.73981C14.4001 7.12309 14.2589 8.5569 13.7192 9.85992C13.1795 11.1629 12.2655 12.2766 11.0928 13.0602C9.92008 13.8438 8.54138 14.262 7.131 14.262C5.23974 14.262 3.42594 13.5107 2.08862 12.1734C0.7513 10.8361 0 9.02226 0 7.131ZM7.131 2.65C7.26361 2.65 7.39079 2.70268 7.48455 2.79645C7.57832 2.89022 7.631 3.0174 7.631 3.15V3.36C8.15853 3.42076 8.64759 3.66606 9.01174 4.05254C9.3759 4.43902 9.5917 4.9418 9.621 5.472C9.621 5.60461 9.56832 5.73179 9.47455 5.82556C9.38078 5.91932 9.25361 5.972 9.121 5.972C8.98839 5.972 8.86121 5.91932 8.76745 5.82556C8.67368 5.73179 8.621 5.60461 8.621 5.472C8.57189 5.12302 8.38894 4.80683 8.11086 4.59034C7.83277 4.37384 7.48137 4.27402 7.131 4.312C6.78016 4.27349 6.42811 4.37319 6.14956 4.58994C5.87101 4.8067 5.68787 5.12345 5.639 5.473C5.68787 5.82255 5.87101 6.13931 6.14956 6.35606C6.42811 6.57282 6.78016 6.67252 7.131 6.634C7.74608 6.59321 8.35242 6.79678 8.81828 7.20047C9.28413 7.60416 9.57188 8.17537 9.619 8.79C9.5897 9.32021 9.3739 9.82298 9.00974 10.2095C8.64559 10.5959 8.15653 10.8412 7.629 10.902V11.112C7.629 11.2446 7.57632 11.3718 7.48255 11.4656C7.38879 11.5593 7.26161 11.612 7.129 11.612C6.99639 11.612 6.86922 11.5593 6.77545 11.4656C6.68168 11.3718 6.629 11.2446 6.629 11.112V10.902C6.10147 10.8412 5.61241 10.5959 5.24826 10.2095C4.8841 9.82298 4.6683 9.32021 4.639 8.79C4.639 8.65739 4.69168 8.53022 4.78545 8.43645C4.87921 8.34268 5.00639 8.29 5.139 8.29C5.27161 8.29 5.39879 8.34268 5.49255 8.43645C5.58632 8.53022 5.639 8.65739 5.639 8.79C5.68811 9.13937 5.87135 9.45588 6.14987 9.67243C6.4284 9.88897 6.78031 9.98853 7.131 9.95C7.482 9.98879 7.8343 9.88922 8.11307 9.67244C8.39185 9.45566 8.57513 9.13875 8.624 8.789C8.57489 8.43944 8.39151 8.12278 8.11277 7.9062C7.83402 7.68963 7.48185 7.59019 7.131 7.629C6.51608 7.66952 5.91001 7.46583 5.44437 7.06217C4.97873 6.6585 4.69112 6.08745 4.644 5.473C4.6733 4.9428 4.8891 4.44002 5.25326 4.05354C5.61741 3.66706 6.10647 3.42176 6.634 3.361V3.15C6.634 3.01791 6.68626 2.89119 6.77938 2.79751C6.8725 2.70382 6.99891 2.6508 7.131 2.65Z" fill="#1E1B1C"/>
</svg>
