<svg width="16" height="14" viewBox="0 0 16 14" fill="none" xmlns="http://www.w3.org/2000/svg">
<path d="M14.6293 2.08134H13.0613M14.6303 6.78734H10.7123M14.6333 11.4933H10.7123M3.64932 13.0613V8.01234C3.65451 7.90441 3.64916 7.79623 3.63332 7.68934C3.61913 7.61982 3.59559 7.55254 3.56332 7.48934C3.50897 7.39608 3.44567 7.30834 3.37432 7.22734L0.787322 3.99334C0.715954 3.91236 0.652654 3.82461 0.598322 3.73134C0.566046 3.66815 0.542497 3.60087 0.528322 3.53134C0.512748 3.42577 0.50739 3.31894 0.512322 3.21234V1.76734C0.480848 1.48877 0.509841 1.20669 0.597322 0.94034C0.672521 0.792623 0.792604 0.67254 0.940322 0.597341C1.20667 0.509859 1.48875 0.480866 1.76732 0.51234H8.66732C8.94589 0.480835 9.22798 0.509828 9.49432 0.597341C9.64204 0.67254 9.76212 0.792623 9.83732 0.94034C9.92483 1.20668 9.95383 1.48877 9.92232 1.76734V3.21234C9.9275 3.32027 9.92214 3.42845 9.90632 3.53534C9.89215 3.60487 9.8686 3.67215 9.83632 3.73534C9.78198 3.8286 9.71868 3.91635 9.64732 3.99734L7.06132 7.22734C6.98998 7.30835 6.92669 7.39609 6.87232 7.48934C6.84006 7.55254 6.81651 7.61982 6.80232 7.68934C6.7865 7.79623 6.78114 7.90441 6.78632 8.01234V10.7123L3.64932 13.0613Z" stroke="black" stroke-linecap="round" stroke-linejoin="round"/>
</svg>
