<svg width="17" height="17" viewBox="0 0 17 17" fill="none" xmlns="http://www.w3.org/2000/svg">
<path d="M3.57612 9.74893L3.01412 11.8489L0.962118 11.8889C0.341027 10.7328 0.0108934 9.44282 0.000265023 8.13048C-0.0103633 6.81814 0.298833 5.52296 0.901118 4.35693L2.72812 4.69193L3.52812 6.50793C3.16803 7.56099 3.18394 8.70628 3.57312 9.74893H3.57612Z" fill="#2D2D2D"/>
<path d="M15.9921 6.55981C16.2665 7.99847 16.1438 9.48468 15.6373 10.8589C15.1308 12.2331 14.2596 13.4434 13.1171 14.3598L10.8171 14.2428L10.4911 12.2098C11.4414 11.6526 12.1714 10.7859 12.5591 9.75482H8.24612V6.56381L15.9921 6.55981Z" fill="#2D2D2D"/>
<path d="M13.1161 14.3568C12.1931 15.0976 11.1184 15.6262 9.96822 15.9052C8.81805 16.1843 7.62057 16.2068 6.46071 15.9713C5.30085 15.7357 4.20701 15.2479 3.25676 14.5424C2.3065 13.8369 1.52311 12.9309 0.962128 11.8888L3.57613 9.74878C3.82198 10.4027 4.20761 10.995 4.70608 11.4845C5.20456 11.9739 5.80386 12.3487 6.46214 12.5826C7.12043 12.8164 7.82183 12.9038 8.51737 12.8385C9.21291 12.7733 9.88582 12.557 10.4891 12.2048L13.1161 14.3568Z" fill="#2D2D2D"/>
<path d="M13.2151 1.85783L10.6021 4.00083C9.98989 3.62035 9.29982 3.38265 8.58313 3.30537C7.86644 3.22809 7.14155 3.31322 6.46227 3.55445C5.78299 3.79567 5.16677 4.18678 4.65933 4.69876C4.1519 5.21074 3.76629 5.83043 3.53114 6.51184L0.903137 4.35683C1.45736 3.28679 2.24428 2.35451 3.20607 1.62849C4.16786 0.902458 5.28009 0.40113 6.46104 0.161333C7.64199 -0.0784646 8.86167 -0.0506387 10.0305 0.242766C11.1993 0.536171 12.2875 1.0877 13.2151 1.85683V1.85783Z" fill="#2D2D2D"/>
</svg>
