<svg width="16" height="14" viewBox="0 0 16 14" fill="none" xmlns="http://www.w3.org/2000/svg">
<path d="M10.7303 0.500137C11.9045 0.569257 13.0061 1.09154 13.8028 1.95692C14.5996 2.8223 15.0292 3.96318 15.0013 5.13914C15.0013 9.67314 7.88129 13.3861 7.75229 13.3861C7.62329 13.3861 0.501286 9.67414 0.501286 5.13914C0.473315 3.96351 0.902705 2.8229 1.69901 1.95758C2.49532 1.09225 3.59638 0.569756 4.77029 0.500137C5.33787 0.495347 5.89946 0.616344 6.41471 0.854432C6.92997 1.09252 7.38608 1.44179 7.75029 1.87714C8.11449 1.44179 8.5706 1.09252 9.08586 0.854432C9.60111 0.616344 10.1627 0.495347 10.7303 0.500137Z" stroke="#1E1B1C" stroke-linecap="round" stroke-linejoin="round"/>
</svg>
