<svg width="20" height="20" viewBox="0 0 20 20" fill="none" xmlns="http://www.w3.org/2000/svg">
<path d="M9.85791 12.666V15.474" stroke="white" stroke-linecap="round"/>
<path d="M19.217 10.049V11.473C19.217 15.124 19.217 16.949 18.117 18.083C17.017 19.217 15.256 19.217 11.727 19.217H7.987C4.458 19.217 2.693 19.217 1.597 18.083C0.501 16.949 0.5 15.123 0.5 11.473V10.049C0.5 7.907 0.5 6.837 0.986 5.949C1.472 5.061 2.36 4.51 4.135 3.409L6.007 2.247C7.883 1.082 8.822 0.5 9.858 0.5C10.894 0.5 11.833 1.082 13.71 2.247L15.582 3.409C17.357 4.509 18.245 5.062 18.731 5.949" stroke="white" stroke-linecap="round"/>
</svg>
