<svg width="12" height="12" viewBox="0 0 12 12" fill="none" xmlns="http://www.w3.org/2000/svg">
<path d="M9.356 7.85389C8.90181 8.28605 8.33282 8.57835 7.717 8.69589L2.329 3.31689C2.46311 2.70591 2.76071 2.14285 3.19 1.68789C5.125 -0.247107 7.65 -0.719107 9.708 1.33689C11.766 3.39289 11.291 5.91889 9.356 7.85389ZM3.368 9.23689C3.67186 9.02185 4.00999 8.85989 4.368 8.75789C4.90087 8.69551 5.44088 8.7442 5.954 8.90089L2.139 5.08789C2.30485 5.62093 2.35061 6.18407 2.273 6.73689C2.17931 7.07843 2.02852 7.40166 1.827 7.69289C0.908 8.77489 0 9.17289 0 9.56789C0.0232424 9.95202 0.186316 10.3143 0.458432 10.5865C0.730547 10.8586 1.09287 11.0217 1.477 11.0449C1.872 11.0439 2.264 10.1749 3.368 9.23689Z" fill="#1E1B1C"/>
</svg>
