<svg width="9" height="12" viewBox="0 0 9 12" fill="none" xmlns="http://www.w3.org/2000/svg">
<path d="M4.44 0C3.26244 0 2.13311 0.467784 1.30045 1.30045C0.467784 2.13311 0 3.26244 0 4.44C0.00073733 5.36664 0.295945 6.26907 0.843 7.017C0.852 7.034 0.854 7.054 0.865 7.07L3.825 11.51C3.89259 11.6113 3.98413 11.6943 4.0915 11.7517C4.19886 11.8092 4.31874 11.8392 4.4405 11.8392C4.56226 11.8392 4.68214 11.8092 4.7895 11.7517C4.89687 11.6943 4.98841 11.6113 5.056 11.51L8.016 7.07C8.027 7.053 8.028 7.034 8.038 7.017C8.5847 6.26895 8.87955 5.36653 8.88 4.44C8.88 3.26244 8.41222 2.13311 7.57955 1.30045C6.74689 0.467784 5.61756 0 4.44 0ZM4.44 5.92C4.14728 5.92 3.86114 5.8332 3.61776 5.67058C3.37437 5.50795 3.18468 5.27681 3.07266 5.00637C2.96064 4.73594 2.93133 4.43836 2.98844 4.15127C3.04554 3.86417 3.1865 3.60046 3.39348 3.39348C3.60046 3.1865 3.86417 3.04554 4.15127 2.98844C4.43836 2.93133 4.73594 2.96064 5.00637 3.07266C5.27681 3.18468 5.50795 3.37437 5.67058 3.61776C5.8332 3.86114 5.92 4.14728 5.92 4.44C5.92 4.63436 5.88172 4.82681 5.80734 5.00637C5.73296 5.18593 5.62395 5.34909 5.48652 5.48652C5.34909 5.62395 5.18593 5.73296 5.00637 5.80734C4.82681 5.88172 4.63436 5.92 4.44 5.92Z" fill="black"/>
</svg>
