<svg width="15" height="18" viewBox="0 0 15 18" fill="none" xmlns="http://www.w3.org/2000/svg">
<path fill-rule="evenodd" clip-rule="evenodd" d="M7.785 15.993C7.657 16.087 7.538 16.172 7.428 16.249C7.312 16.172 7.183 16.083 7.043 15.983C6.19956 15.3757 5.41028 14.6965 4.684 13.953C2.954 12.179 1.5 9.915 1.5 7.5C1.5 5.9087 2.13214 4.38258 3.25736 3.25736C4.38258 2.13214 5.9087 1.5 7.5 1.5C9.0913 1.5 10.6174 2.13214 11.7426 3.25736C12.8679 4.38258 13.5 5.9087 13.5 7.5C13.5 9.889 11.982 12.147 10.189 13.939C9.44032 14.683 8.63672 15.3696 7.785 15.993ZM15 7.5C15 13.5 7.5 18 7.5 18C7.125 18 0 13.5 0 7.5C0 5.51088 0.790176 3.60322 2.1967 2.1967C3.60322 0.790176 5.51088 0 7.5 0C9.48912 0 11.3968 0.790176 12.8033 2.1967C14.2098 3.60322 15 5.51088 15 7.5ZM9 7.5C9 7.79667 8.91203 8.08668 8.7472 8.33335C8.58238 8.58003 8.34811 8.77229 8.07403 8.88582C7.79994 8.99935 7.49834 9.02906 7.20736 8.97118C6.91639 8.9133 6.64912 8.77044 6.43934 8.56066C6.22956 8.35088 6.0867 8.08361 6.02882 7.79264C5.97094 7.50166 6.00065 7.20006 6.11418 6.92597C6.22771 6.65189 6.41997 6.41762 6.66665 6.2528C6.91332 6.08797 7.20333 6 7.5 6C7.89782 6 8.27936 6.15804 8.56066 6.43934C8.84196 6.72064 9 7.10218 9 7.5ZM10.5 7.5C10.5 8.09334 10.3241 8.67336 9.99441 9.16671C9.66476 9.66006 9.19623 10.0446 8.64805 10.2716C8.09987 10.4987 7.49667 10.5581 6.91473 10.4424C6.33279 10.3266 5.79824 10.0409 5.37868 9.62132C4.95912 9.20176 4.6734 8.66721 4.55764 8.08527C4.44189 7.50333 4.5013 6.90013 4.72836 6.35195C4.95542 5.80377 5.33994 5.33524 5.83329 5.00559C6.32664 4.67595 6.90666 4.5 7.5 4.5C8.29565 4.5 9.05871 4.81607 9.62132 5.37868C10.1839 5.94129 10.5 6.70435 10.5 7.5Z" fill="black"/>
</svg>
