<svg width="21" height="20" viewBox="0 0 21 20" fill="none" xmlns="http://www.w3.org/2000/svg">
<path fill-rule="evenodd" clip-rule="evenodd" d="M17.8938 16.1599C17.8768 16.4125 17.7622 16.6486 17.5743 16.8182C17.3864 16.9878 17.1398 17.0777 16.8868 17.0689H13.9958C13.8752 17.0715 13.7552 17.0499 13.6431 17.0054C13.531 16.9608 13.429 16.8941 13.3432 16.8093C13.2574 16.7245 13.1895 16.6233 13.1435 16.5117C13.0976 16.4002 13.0746 16.2805 13.0758 16.1599V13.4069C13.0739 13.2852 13.0964 13.1645 13.1419 13.0517C13.1874 12.9389 13.255 12.8363 13.3407 12.75C13.4264 12.6638 13.5286 12.5955 13.6411 12.5493C13.7536 12.503 13.8742 12.4798 13.9958 12.4809H16.8868C17.1416 12.4757 17.3886 12.5691 17.5762 12.7417C17.7639 12.9142 17.8776 13.1525 17.8938 13.4069V16.1599ZM16.8868 10.6459H13.9958C13.6273 10.6388 13.261 10.7048 12.9181 10.8401C12.5752 10.9753 12.2624 11.177 11.9978 11.4337C11.7333 11.6904 11.5221 11.9969 11.3766 12.3355C11.231 12.6742 11.154 13.0383 11.1498 13.4069V16.1599C11.1542 16.5277 11.2316 16.8911 11.3775 17.2288C11.5234 17.5665 11.7349 17.8719 11.9997 18.1273C12.2646 18.3826 12.5775 18.5828 12.9203 18.7163C13.2631 18.8498 13.629 18.9139 13.9968 18.9049H16.8878C17.6398 18.926 18.3698 18.6495 18.9191 18.1355C19.4685 17.6216 19.7929 16.9116 19.8218 16.1599V13.4069C19.7936 12.6534 19.47 11.9414 18.921 11.4247C18.3719 10.908 17.6405 10.6282 16.8868 10.6459ZM7.29481 16.1599C7.27782 16.4125 7.16325 16.6486 6.97531 16.8182C6.78738 16.9878 6.54082 17.0777 6.2878 17.0689H3.3968C3.27618 17.0715 3.15625 17.0499 3.04414 17.0054C2.93202 16.9608 2.83003 16.8941 2.7442 16.8093C2.65838 16.7245 2.59048 16.6233 2.54454 16.5117C2.4986 16.4002 2.47557 16.2805 2.47681 16.1599V13.4069C2.47493 13.2852 2.4974 13.1645 2.5429 13.0517C2.5884 12.9389 2.656 12.8363 2.74172 12.75C2.82745 12.6638 2.92957 12.5955 3.04207 12.5493C3.15457 12.503 3.27518 12.4798 3.3968 12.4809H6.2878C6.54264 12.4757 6.78962 12.5691 6.97723 12.7417C7.16485 12.9142 7.27862 13.1525 7.29481 13.4069V16.1599ZM6.2878 10.6459H3.3968C3.02818 10.6387 2.66179 10.7046 2.31876 10.8398C1.97574 10.9749 1.66287 11.1767 1.39819 11.4333C1.13352 11.69 0.922291 11.9965 0.77668 12.3353C0.631069 12.674 0.55396 13.0382 0.549805 13.4069V16.1599C0.554195 16.5277 0.631584 16.8911 0.777481 17.2288C0.923379 17.5665 1.13488 17.8719 1.39972 18.1273C1.66456 18.3826 1.97747 18.5828 2.32029 18.7163C2.66311 18.8498 3.02902 18.9139 3.3968 18.9049H6.2878C7.03981 18.926 7.76977 18.6495 8.31912 18.1355C8.86848 17.6216 9.19286 16.9116 9.2218 16.1599V13.4069C9.19337 12.6535 8.86969 11.9416 8.32069 11.425C7.77169 10.9084 7.04146 10.6285 6.2878 10.6459ZM17.8938 6.06586C17.8768 6.31846 17.7622 6.55456 17.5743 6.7242C17.3864 6.89385 17.1398 6.98374 16.8868 6.97486H13.9958C13.8752 6.97754 13.7552 6.95595 13.6431 6.91136C13.531 6.86677 13.429 6.80009 13.3432 6.71529C13.2574 6.63049 13.1895 6.5293 13.1435 6.41773C13.0976 6.30617 13.0746 6.1865 13.0758 6.06586V3.31186C13.0739 3.19024 13.0964 3.06948 13.1419 2.95668C13.1874 2.84388 13.255 2.74132 13.3407 2.65504C13.4264 2.56876 13.5286 2.50049 13.6411 2.45426C13.7536 2.40803 13.8742 2.38477 13.9958 2.38585H16.8868C17.1416 2.3807 17.3886 2.47413 17.5762 2.64666C17.7639 2.81918 17.8776 3.05749 17.8938 3.31186V6.06586ZM16.8868 0.550856H13.9958C13.6273 0.543838 13.261 0.609838 12.9181 0.745054C12.5752 0.880271 12.2624 1.08203 11.9978 1.33869C11.7333 1.59535 11.5221 1.90185 11.3766 2.2405C11.231 2.57916 11.154 2.94327 11.1498 3.31186V6.06486C11.1542 6.43272 11.2316 6.79605 11.3775 7.13378C11.5234 7.47151 11.7349 7.7769 11.9997 8.03225C12.2646 8.2876 12.5775 8.48783 12.9203 8.62131C13.2631 8.7548 13.629 8.81888 13.9968 8.80985H16.8878C17.6398 8.83096 18.3698 8.5545 18.9191 8.04053C19.4685 7.52656 19.7929 6.8166 19.8218 6.06486V3.31186C19.7936 2.55827 19.4699 1.84607 18.9206 1.32936C18.3713 0.812654 17.6407 0.532981 16.8868 0.550856ZM7.29481 6.06486C7.27782 6.31746 7.16325 6.55356 6.97531 6.7232C6.78738 6.89284 6.54082 6.98274 6.2878 6.97386H3.3968C3.27618 6.97654 3.15625 6.95495 3.04414 6.91036C2.93202 6.86577 2.83003 6.79909 2.7442 6.71429C2.65838 6.62949 2.59048 6.5283 2.54454 6.41673C2.4986 6.30517 2.47557 6.1855 2.47681 6.06486V3.31186C2.47493 3.19024 2.4974 3.06948 2.5429 2.95668C2.5884 2.84388 2.656 2.74132 2.74172 2.65504C2.82745 2.56876 2.92957 2.50049 3.04207 2.45426C3.15457 2.40803 3.27518 2.38477 3.3968 2.38585H6.2878C6.54264 2.3807 6.78962 2.47413 6.97723 2.64666C7.16485 2.81918 7.27862 3.05749 7.29481 3.31186V6.06486ZM6.2878 0.550856H3.3968C3.02818 0.543704 2.66179 0.609608 2.31876 0.744765C1.97574 0.879921 1.66287 1.08165 1.39819 1.33833C1.13352 1.59501 0.922291 1.90155 0.77668 2.24027C0.631069 2.57899 0.55396 2.94319 0.549805 3.31186V6.06486C0.554195 6.43272 0.631584 6.79605 0.777481 7.13378C0.923379 7.47151 1.13488 7.7769 1.39972 8.03225C1.66456 8.2876 1.97747 8.48783 2.32029 8.62131C2.66311 8.7548 3.02902 8.81888 3.3968 8.80985H6.2878C7.03981 8.83096 7.76977 8.5545 8.31912 8.04053C8.86848 7.52656 9.19286 6.8166 9.2218 6.06486V3.31186C9.19337 2.55853 8.86969 1.84664 8.32069 1.33002C7.77169 0.813388 7.04146 0.533509 6.2878 0.550856Z" fill="white" stroke="#293EB0" stroke-width="1.1"/>
</svg>
