<svg width="21" height="20" viewBox="0 0 21 20" fill="none" xmlns="http://www.w3.org/2000/svg">
<path fill-rule="evenodd" clip-rule="evenodd" d="M17.8941 16.1599C17.8771 16.4125 17.7625 16.6486 17.5746 16.8182C17.3866 16.9878 17.1401 17.0777 16.887 17.0689H13.996C13.8754 17.0715 13.7555 17.0499 13.6434 17.0054C13.5313 16.9608 13.4293 16.8941 13.3434 16.8093C13.2576 16.7245 13.1897 16.6233 13.1438 16.5117C13.0978 16.4002 13.0748 16.2805 13.076 16.1599V13.4069C13.0742 13.2852 13.0966 13.1645 13.1421 13.0517C13.1876 12.9389 13.2552 12.8363 13.341 12.75C13.4267 12.6638 13.5288 12.5955 13.6413 12.5493C13.7538 12.503 13.8744 12.4798 13.996 12.4809H16.887C17.1419 12.4757 17.3889 12.5691 17.5765 12.7417C17.7641 12.9142 17.8779 13.1525 17.8941 13.4069V16.1599ZM16.887 10.6459H13.996C13.6275 10.6388 13.2612 10.7048 12.9183 10.8401C12.5754 10.9753 12.2627 11.177 11.9981 11.4337C11.7335 11.6904 11.5224 11.9969 11.3768 12.3355C11.2313 12.6742 11.1542 13.0383 11.15 13.4069V16.1599C11.1544 16.5277 11.2318 16.8911 11.3777 17.2288C11.5236 17.5665 11.7351 17.8719 12 18.1273C12.2648 18.3826 12.5777 18.5828 12.9205 18.7163C13.2634 18.8498 13.6293 18.9139 13.997 18.9049H16.888C17.6401 18.926 18.37 18.6495 18.9194 18.1355C19.4687 17.6216 19.7931 16.9116 19.8221 16.1599V13.4069C19.7939 12.6534 19.4703 11.9414 18.9212 11.4247C18.3722 10.908 17.6408 10.6282 16.887 10.6459ZM7.29505 16.1599C7.27807 16.4125 7.16349 16.6486 6.97556 16.8182C6.78762 16.9878 6.54107 17.0777 6.28805 17.0689H3.39705C3.27643 17.0715 3.15649 17.0499 3.04438 17.0054C2.93227 16.9608 2.83027 16.8941 2.74445 16.8093C2.65862 16.7245 2.59072 16.6233 2.54478 16.5117C2.49885 16.4002 2.47581 16.2805 2.47705 16.1599V13.4069C2.47518 13.2852 2.49765 13.1645 2.54314 13.0517C2.58864 12.9389 2.65624 12.8363 2.74197 12.75C2.82769 12.6638 2.92981 12.5955 3.04231 12.5493C3.15481 12.503 3.27542 12.4798 3.39705 12.4809H6.28805C6.54288 12.4757 6.78986 12.5691 6.97748 12.7417C7.1651 12.9142 7.27887 13.1525 7.29505 13.4069V16.1599ZM6.28805 10.6459H3.39705C3.02843 10.6387 2.66203 10.7046 2.31901 10.8398C1.97598 10.9749 1.66311 11.1767 1.39844 11.4333C1.13377 11.69 0.922535 11.9965 0.776924 12.3353C0.631313 12.674 0.554204 13.0382 0.550049 13.4069V16.1599C0.554439 16.5277 0.631828 16.8911 0.777725 17.2288C0.923623 17.5665 1.13512 17.8719 1.39996 18.1273C1.6648 18.3826 1.97771 18.5828 2.32053 18.7163C2.66336 18.8498 3.02927 18.9139 3.39705 18.9049H6.28805C7.04005 18.926 7.77001 18.6495 8.31937 18.1355C8.86872 17.6216 9.1931 16.9116 9.22205 16.1599V13.4069C9.19361 12.6535 8.86993 11.9416 8.32093 11.425C7.77193 10.9084 7.04171 10.6285 6.28805 10.6459ZM17.8941 6.06586C17.8771 6.31846 17.7625 6.55456 17.5746 6.7242C17.3866 6.89385 17.1401 6.98374 16.887 6.97486H13.996C13.8754 6.97754 13.7555 6.95595 13.6434 6.91136C13.5313 6.86677 13.4293 6.80009 13.3434 6.71529C13.2576 6.63049 13.1897 6.5293 13.1438 6.41773C13.0978 6.30617 13.0748 6.1865 13.076 6.06586V3.31186C13.0742 3.19024 13.0966 3.06948 13.1421 2.95668C13.1876 2.84388 13.2552 2.74132 13.341 2.65504C13.4267 2.56876 13.5288 2.50049 13.6413 2.45426C13.7538 2.40803 13.8744 2.38477 13.996 2.38585H16.887C17.1419 2.3807 17.3889 2.47413 17.5765 2.64666C17.7641 2.81918 17.8779 3.05749 17.8941 3.31186V6.06586ZM16.887 0.550856H13.996C13.6275 0.543838 13.2612 0.609838 12.9183 0.745054C12.5754 0.880271 12.2627 1.08203 11.9981 1.33869C11.7335 1.59535 11.5224 1.90185 11.3768 2.2405C11.2313 2.57916 11.1542 2.94327 11.15 3.31186V6.06486C11.1544 6.43272 11.2318 6.79605 11.3777 7.13378C11.5236 7.47151 11.7351 7.7769 12 8.03225C12.2648 8.2876 12.5777 8.48783 12.9205 8.62131C13.2634 8.7548 13.6293 8.81888 13.997 8.80985H16.888C17.6401 8.83096 18.37 8.5545 18.9194 8.04053C19.4687 7.52656 19.7931 6.8166 19.8221 6.06486V3.31186C19.7939 2.55827 19.4701 1.84607 18.9209 1.32936C18.3716 0.812654 17.6409 0.532981 16.887 0.550856ZM7.29505 6.06486C7.27807 6.31746 7.16349 6.55356 6.97556 6.7232C6.78762 6.89284 6.54107 6.98274 6.28805 6.97386H3.39705C3.27643 6.97654 3.15649 6.95495 3.04438 6.91036C2.93227 6.86577 2.83027 6.79909 2.74445 6.71429C2.65862 6.62949 2.59072 6.5283 2.54478 6.41673C2.49885 6.30517 2.47581 6.1855 2.47705 6.06486V3.31186C2.47518 3.19024 2.49765 3.06948 2.54314 2.95668C2.58864 2.84388 2.65624 2.74132 2.74197 2.65504C2.82769 2.56876 2.92981 2.50049 3.04231 2.45426C3.15481 2.40803 3.27542 2.38477 3.39705 2.38585H6.28805C6.54288 2.3807 6.78986 2.47413 6.97748 2.64666C7.1651 2.81918 7.27887 3.05749 7.29505 3.31186V6.06486ZM6.28805 0.550856H3.39705C3.02843 0.543704 2.66203 0.609608 2.31901 0.744765C1.97598 0.879921 1.66311 1.08165 1.39844 1.33833C1.13377 1.59501 0.922535 1.90155 0.776924 2.24027C0.631313 2.57899 0.554204 2.94319 0.550049 3.31186V6.06486C0.554439 6.43272 0.631828 6.79605 0.777725 7.13378C0.923623 7.47151 1.13512 7.7769 1.39996 8.03225C1.6648 8.2876 1.97771 8.48783 2.32053 8.62131C2.66336 8.7548 3.02927 8.81888 3.39705 8.80985H6.28805C7.04005 8.83096 7.77001 8.5545 8.31937 8.04053C8.86872 7.52656 9.1931 6.8166 9.22205 6.06486V3.31186C9.19361 2.55853 8.86993 1.84664 8.32093 1.33002C7.77193 0.813388 7.04171 0.533509 6.28805 0.550856Z" fill="#1E1B1C" stroke="white" stroke-width="1.1"/>
</svg>
