<svg width="21" height="22" viewBox="0 0 21 22" fill="none" xmlns="http://www.w3.org/2000/svg">
<path d="M4.59489 18.7032L4.57649 18.6878C4.4611 18.5882 4.36949 18.464 4.30835 18.3244C4.24721 18.1863 4.22719 18.0336 4.25069 17.8844L4.32134 17.8967C4.30475 18.0352 4.32359 18.1757 4.37611 18.3049C4.42864 18.4341 4.51311 18.5479 4.62162 18.6356L4.6377 18.6491C4.73877 18.7404 4.86095 18.8052 4.99326 18.8376C5.12557 18.87 5.26387 18.869 5.3957 18.8348C5.53192 18.7851 5.66108 18.718 5.77997 18.635C5.91707 18.538 6.06953 18.4647 6.23092 18.4181C6.41178 18.3794 6.59988 18.3925 6.77366 18.4558C6.90265 18.4127 7.03538 18.3816 7.17012 18.3629C7.45976 18.3227 7.75445 18.3386 8.03807 18.4098C8.17995 18.4455 8.31792 18.4952 8.44996 18.5583C8.63241 18.6451 8.82316 18.7133 9.0193 18.7619C9.12483 18.7917 9.24368 18.8196 9.38742 18.8724C9.57623 18.9362 9.74117 19.056 9.86037 19.2157C9.90937 19.2732 9.94588 19.3403 9.96761 19.4127C9.98934 19.4851 9.99579 19.5612 9.98658 19.6362C9.97979 19.6678 9.96623 19.6976 9.9468 19.7235C9.92736 19.7493 9.90253 19.7706 9.87404 19.7859C9.80047 19.8204 9.71787 19.8306 9.63812 19.8151C9.55621 19.8038 9.42913 19.7794 9.29644 19.7555C9.16374 19.7316 8.98961 19.6965 8.899 19.6831C8.77504 19.6664 8.65486 19.6287 8.54359 19.5715C8.43217 19.515 8.32405 19.4522 8.21977 19.3834C7.92092 19.1966 7.6231 19.0054 7.36821 18.8425C7.18361 18.7171 6.98543 18.613 6.77747 18.5321C6.61182 18.4675 6.43112 18.4518 6.25679 18.4868C6.10203 18.5302 5.95569 18.5994 5.82396 18.6915C5.70066 18.7764 5.56683 18.8449 5.42585 18.8953C5.28035 18.9395 5.12517 18.9408 4.97898 18.8989C4.83846 18.8618 4.7075 18.7951 4.59489 18.7032ZM9.66163 19.1103C9.57401 19.0369 9.47352 18.9805 9.36527 18.9438C9.22114 18.8947 9.11177 18.8617 9.00149 18.8344C8.80128 18.7848 8.60659 18.715 8.42039 18.6262C7.94134 18.3989 7.39582 18.3542 6.88619 18.5006C7.06713 18.5805 7.24077 18.676 7.40517 18.786C7.66005 18.949 7.95785 19.1401 8.2567 19.3269C8.45002 19.4694 8.67269 19.5671 8.90848 19.6127C9.00383 19.6235 9.1612 19.6538 9.3136 19.6837C9.44718 19.7097 9.57423 19.734 9.65396 19.7448C9.71862 19.7578 9.78572 19.7502 9.84584 19.7231C9.8654 19.7127 9.88242 19.6981 9.89572 19.6804C9.90901 19.6626 9.91824 19.6422 9.92275 19.6205C9.92836 19.5561 9.92101 19.4912 9.90112 19.4296C9.88123 19.3681 9.84919 19.3112 9.80693 19.2623C9.76379 19.2069 9.71415 19.1569 9.65906 19.1134L9.66163 19.1103Z" fill="#1F1B1C"/>
<path d="M16.4322 3.34505C16.4322 3.34505 11.7044 -1.26038 8.81084 4.7628C8.21922 6.41821 7.89903 8.15835 7.86265 9.91592C7.86265 9.91592 7.50753 12.6556 7.46961 12.7739C7.46961 12.7739 7.49353 13.1934 6.14165 14.6085L4.49908 16.3763C4.49908 16.3763 3.62224 16.9172 3.7678 17.1856C3.88174 17.4418 4.05258 17.6686 4.26736 17.8488C4.48214 18.029 4.73519 18.1579 5.00726 18.2256C5.29616 18.3231 5.67725 17.3649 5.67725 17.3649L7.13291 15.4403C8.36734 13.8509 8.70907 13.814 8.70907 13.814C8.88529 13.7268 11.4554 12.9306 11.4554 12.9306C13.1838 12.6034 14.8442 11.9851 16.3656 11.102C21.7887 7.20128 16.4322 3.34505 16.4322 3.34505ZM11.5322 4.26706C11.6545 4.25636 11.7762 4.2947 11.8703 4.37366C11.9644 4.45262 12.0232 4.56572 12.0339 4.68809C12.0446 4.81046 12.0063 4.93206 11.9273 5.02616C11.8484 5.12026 11.7353 5.17914 11.6129 5.18985C11.4905 5.20055 11.3689 5.16221 11.2748 5.08325C11.1807 5.00429 11.1219 4.89119 11.1112 4.76882C11.1004 4.64645 11.1388 4.52484 11.2177 4.43074C11.2967 4.33664 11.4098 4.27777 11.5322 4.26706ZM10.6932 6.26263C10.5746 6.27079 10.4576 6.23269 10.3666 6.15633C10.2756 6.07997 10.2177 5.97129 10.2052 5.85316C10.1989 5.73125 10.2391 5.61149 10.3176 5.51797C10.396 5.42446 10.507 5.36413 10.6281 5.34911C10.6886 5.34398 10.7495 5.35104 10.8072 5.36986C10.865 5.38868 10.9183 5.41889 10.9641 5.45869C11.01 5.49849 11.0474 5.54707 11.0741 5.60157C11.1008 5.65608 11.1164 5.71538 11.1198 5.77599C11.1274 5.83685 11.1221 5.89864 11.1041 5.95729C11.0862 6.01594 11.056 6.07011 11.0155 6.11624C10.9751 6.16236 10.9253 6.1994 10.8696 6.22489C10.8138 6.25039 10.7532 6.26378 10.6919 6.26416L10.6932 6.26263ZM15.6936 5.90393C15.8162 5.89703 15.9365 5.93888 16.0283 6.02034C16.1201 6.10179 16.176 6.21624 16.1838 6.33874C16.1888 6.39892 16.1816 6.4595 16.1627 6.51685C16.1438 6.57419 16.1135 6.62715 16.0737 6.67255C16.0339 6.71796 15.9854 6.75489 15.931 6.78115C15.8766 6.8074 15.8175 6.82244 15.7572 6.82538C15.6391 6.83157 15.5231 6.79275 15.4326 6.71676C15.342 6.64077 15.2836 6.53327 15.2692 6.41593C15.2656 6.29337 15.3072 6.17377 15.386 6.07985C15.4648 5.98593 15.5754 5.92424 15.6967 5.90651L15.6936 5.90393ZM14.7802 6.99248C14.8409 6.98617 14.9022 6.99204 14.9607 7.00973C15.0191 7.02741 15.0733 7.05657 15.1203 7.09548C15.1674 7.1344 15.2061 7.18229 15.2344 7.23637C15.2627 7.29045 15.2799 7.34962 15.285 7.41043C15.2901 7.47123 15.2831 7.53246 15.2643 7.59051C15.2455 7.64856 15.2153 7.70228 15.1755 7.74852C15.1356 7.79476 15.087 7.8326 15.0324 7.85982C14.9778 7.88704 14.9183 7.9031 14.8574 7.90706C14.7988 7.91253 14.7396 7.90632 14.6834 7.88878C14.6272 7.87124 14.5751 7.84272 14.53 7.80488C14.4849 7.76703 14.4477 7.72061 14.4207 7.66831C14.3936 7.61601 14.3773 7.55886 14.3725 7.50018C14.3653 7.43979 14.3703 7.37856 14.3874 7.32019C14.4044 7.26181 14.4331 7.20748 14.4717 7.16047C14.5103 7.11346 14.558 7.07476 14.6119 7.04666C14.6659 7.01856 14.7249 7.00166 14.7856 6.99698L14.7802 6.99248ZM12.9701 9.14966C13.0298 9.14183 13.0904 9.14616 13.1484 9.16238C13.2063 9.17861 13.2604 9.20639 13.3073 9.24406C13.3543 9.28173 13.3931 9.32852 13.4215 9.3816C13.4499 9.43467 13.4672 9.49294 13.4725 9.5529C13.4801 9.67458 13.4406 9.79455 13.3623 9.88795C13.2839 9.98135 13.1726 10.041 13.0514 10.0547C12.9334 10.0621 12.817 10.0246 12.7256 9.94961C12.6342 9.87462 12.5746 9.76774 12.5589 9.65056C12.5521 9.59021 12.5576 9.52909 12.5753 9.47098C12.593 9.41287 12.6224 9.359 12.6617 9.31271C12.7011 9.26643 12.7495 9.2287 12.804 9.20187C12.8584 9.17504 12.9179 9.15968 12.9785 9.15673L12.9701 9.14966ZM13.8849 8.07661C14.0029 8.07265 14.1183 8.11247 14.2088 8.18841C14.2993 8.26434 14.3585 8.37103 14.3751 8.48799C14.3795 8.60946 14.3387 8.72824 14.2606 8.82135C14.1825 8.91446 14.0726 8.97528 13.9522 8.99205C13.8306 9.00033 13.7108 8.95999 13.619 8.8799C13.5272 8.79981 13.471 8.68653 13.4627 8.56499C13.4544 8.44344 13.4947 8.32358 13.5748 8.23178C13.6549 8.13998 13.7682 8.08375 13.8897 8.07547L13.8849 8.07661ZM14.6135 4.9976C14.7322 4.99085 14.8491 5.02966 14.9402 5.1061C15.0313 5.18255 15.0898 5.29088 15.1038 5.40899C15.1093 5.46956 15.1025 5.53062 15.0839 5.58851C15.0652 5.6464 15.035 5.69992 14.9952 5.74585C14.9553 5.79177 14.9065 5.82916 14.8518 5.85575C14.7971 5.88235 14.7376 5.89761 14.6769 5.90061C14.6183 5.90686 14.559 5.90105 14.5028 5.88355C14.4465 5.86605 14.3944 5.83724 14.3497 5.79887C14.305 5.7605 14.2686 5.71338 14.2428 5.66043C14.217 5.60747 14.2022 5.54979 14.1995 5.49094C14.1937 5.43096 14.2002 5.37042 14.2186 5.31303C14.2369 5.25563 14.2668 5.20257 14.3063 5.15708C14.3458 5.11159 14.3941 5.07461 14.4484 5.04841C14.5027 5.02221 14.5617 5.00733 14.6219 5.00468L14.6135 4.9976ZM13.7801 6.99267C13.72 6.99938 13.6591 6.9938 13.6012 6.9763C13.5433 6.9588 13.4896 6.92973 13.4432 6.89085C13.3969 6.85196 13.3589 6.80409 13.3317 6.7501C13.3044 6.69612 13.2883 6.63715 13.2845 6.57679C13.2758 6.45487 13.3149 6.33437 13.3935 6.24074C13.4721 6.14712 13.5839 6.08769 13.7055 6.07503C13.8237 6.07537 13.9381 6.11718 14.0287 6.19317C14.1192 6.26917 14.1803 6.37454 14.2011 6.49091C14.2106 6.61249 14.173 6.73306 14.0961 6.82766C14.0191 6.92226 13.9087 6.98364 13.7878 6.9991L13.7801 6.99267ZM12.7789 7.16686C12.9005 7.15793 13.0209 7.19609 13.1151 7.27347C13.2094 7.35085 13.2703 7.4615 13.2852 7.58253C13.2933 7.70472 13.2532 7.82522 13.1735 7.91819C13.0937 8.01115 12.9808 8.06916 12.8588 8.07978C12.7408 8.08896 12.6239 8.05148 12.5332 7.9754C12.4425 7.89932 12.3853 7.79071 12.3739 7.6729C12.3681 7.61296 12.3742 7.55247 12.3919 7.4949C12.4096 7.43733 12.4384 7.38383 12.4769 7.33746C12.5153 7.29109 12.5625 7.25277 12.6158 7.22471C12.669 7.19664 12.7274 7.1794 12.7873 7.17394L12.7789 7.16686ZM11.9452 9.16693C11.8236 9.17029 11.7052 9.12721 11.6142 9.04644C11.5231 8.96568 11.4662 8.85329 11.455 8.73211C11.4531 8.61381 11.4968 8.49932 11.5769 8.41231C11.6571 8.3253 11.7677 8.27244 11.8857 8.26466C12.0038 8.25689 12.1203 8.29479 12.2112 8.37054C12.302 8.44629 12.3603 8.55407 12.3739 8.67159C12.3828 8.7935 12.3438 8.91406 12.2654 9.00781C12.187 9.10156 12.0752 9.16114 11.9537 9.17399L11.9452 9.16693ZM13.5199 4.08393C13.5819 4.07478 13.6451 4.07834 13.7057 4.09437C13.7662 4.11041 13.8229 4.1386 13.8722 4.17722C13.9215 4.21584 13.9625 4.2641 13.9926 4.31904C14.0227 4.37399 14.0413 4.43447 14.0473 4.49683C14.0533 4.55919 14.0465 4.62212 14.0274 4.68179C14.0083 4.74145 13.9773 4.79661 13.9362 4.84391C13.8951 4.89121 13.8449 4.92966 13.7885 4.95693C13.7321 4.98419 13.6707 4.99971 13.6081 5.00252C13.5479 5.00889 13.487 5.00321 13.4289 4.98583C13.3709 4.96845 13.3169 4.93971 13.2701 4.90127C13.2233 4.86283 13.1845 4.81546 13.1562 4.76192C13.1278 4.70839 13.1104 4.64975 13.1049 4.58942C13.0986 4.46813 13.139 4.34902 13.2178 4.25658C13.2965 4.16414 13.4077 4.10539 13.5285 4.0924L13.5199 4.08393ZM12.6046 5.17478C12.7259 5.1655 12.8462 5.20275 12.9411 5.27895C13.036 5.35516 13.0983 5.4646 13.1154 5.58508C13.1204 5.64544 13.1135 5.70622 13.0948 5.76386C13.0762 5.82151 13.0463 5.87488 13.0069 5.92087C12.9674 5.96685 12.9193 6.00453 12.8651 6.03173C12.811 6.05892 12.752 6.07508 12.6916 6.07927C12.6315 6.08618 12.5706 6.0806 12.5128 6.06289C12.455 6.04518 12.4015 6.01571 12.3556 5.97635C12.3097 5.93698 12.2724 5.88856 12.2461 5.83411C12.2198 5.77967 12.205 5.72037 12.2027 5.65995C12.1956 5.54292 12.234 5.42767 12.31 5.33833C12.3859 5.249 12.4934 5.1925 12.6101 5.18068L12.6046 5.17478ZM10.7875 7.34038C10.8478 7.33466 10.9086 7.34098 10.9664 7.35899C11.0243 7.37699 11.078 7.40632 11.1244 7.44526C11.1708 7.4842 11.209 7.53197 11.2367 7.5858C11.2645 7.63963 11.2813 7.69845 11.2861 7.75884C11.2924 7.81888 11.2865 7.87956 11.2689 7.93729C11.2512 7.99501 11.2221 8.04859 11.1833 8.09484C11.1445 8.14108 11.0968 8.17904 11.043 8.20647C10.9892 8.23389 10.9305 8.25022 10.8703 8.25447C10.751 8.26257 10.6334 8.22374 10.5424 8.14629C10.4514 8.06884 10.3943 7.95889 10.3832 7.83991C10.3721 7.72092 10.408 7.60232 10.4832 7.50943C10.5584 7.41653 10.6669 7.35669 10.7855 7.34268L10.7875 7.34038ZM11.7054 6.24647C11.8236 6.24161 11.9395 6.2811 12.0302 6.35719C12.1209 6.43329 12.1799 6.54052 12.1956 6.65786C12.2026 6.71826 12.1975 6.77945 12.1806 6.83787C12.1637 6.89629 12.1354 6.95078 12.0973 6.99816C12.0592 7.04554 12.0121 7.08488 11.9586 7.11389C11.9052 7.1429 11.8465 7.161 11.786 7.16714C11.7255 7.17328 11.6644 7.16733 11.6062 7.14965C11.548 7.13197 11.4939 7.1029 11.4471 7.06414C11.4002 7.02538 11.3615 6.9777 11.3333 6.92386C11.305 6.87002 11.2877 6.81111 11.2824 6.75053C11.2804 6.62921 11.3234 6.51143 11.403 6.41992C11.4827 6.3284 11.5934 6.26963 11.7139 6.25495L11.7054 6.24647ZM10.9193 11.9951C10.246 12.0852 9.58989 12.2751 8.97261 12.5587C8.91425 12.5893 8.74843 12.4789 8.74843 12.4789C8.74843 12.4789 8.55368 12.3299 8.59715 12.2345C8.82871 11.4166 8.9248 10.5664 8.88161 9.71746C8.8891 9.53041 8.91054 9.34419 8.94573 9.16034C9.21629 9.79201 9.62792 10.3533 10.149 10.8012C10.6702 11.2492 11.287 11.5718 11.9521 11.7443C11.6201 11.8643 11.277 11.9511 10.9278 12.0036L10.9193 11.9951ZM15.0356 9.90377C14.9138 9.91164 14.7938 9.87088 14.702 9.79043C14.6102 9.70997 14.5541 9.59638 14.5459 9.47459C14.5386 9.41433 14.544 9.35321 14.5618 9.29517C14.5795 9.23713 14.6093 9.18346 14.6491 9.13764C14.6889 9.09181 14.7379 9.05484 14.7929 9.02912C14.8478 9.0034 14.9076 8.98951 14.9683 8.98833C15.0861 8.97993 15.2026 9.01769 15.2931 9.09362C15.3836 9.16956 15.441 9.27772 15.4532 9.39522C15.4619 9.51745 15.4245 9.63851 15.3485 9.7346C15.2724 9.8307 15.1632 9.89488 15.0422 9.91455L15.0356 9.90377ZM15.9335 8.81657C15.8136 8.82437 15.6954 8.7848 15.6043 8.70637C15.5132 8.62794 15.4565 8.51691 15.4464 8.39713C15.4363 8.27736 15.4736 8.1584 15.5502 8.06582C15.6269 7.97324 15.7368 7.91442 15.8564 7.902C15.9167 7.89628 15.9775 7.9026 16.0353 7.92061C16.0932 7.93861 16.1469 7.96794 16.1933 8.00688C16.2397 8.04582 16.2779 8.09359 16.3056 8.14742C16.3334 8.20125 16.3502 8.26007 16.355 8.32046C16.3656 8.44198 16.3282 8.56281 16.251 8.65721C16.1737 8.7516 16.0626 8.8121 15.9414 8.82582L15.9335 8.81657Z" fill="#1F1B1C"/>
<path d="M7.48404 12.7443C7.48919 12.7468 7.49366 12.7506 7.49706 12.7552C7.52703 12.8242 7.56344 12.8902 7.60584 12.9523C7.71569 13.1156 7.84829 13.2625 7.99962 13.3884C8.00345 13.3916 8.12525 13.4938 8.27691 13.5885C8.40004 13.6857 8.54622 13.7494 8.70125 13.7735L8.70226 13.8096L8.70611 13.8455C8.58076 13.8978 8.46808 13.9764 8.37565 14.076C7.92858 14.5003 7.51969 14.9632 7.1537 15.4591L5.70445 17.376C5.6392 17.5352 5.56411 17.6902 5.47959 17.84C5.41856 17.9516 5.34366 18.055 5.25666 18.1477C5.16198 18.2419 5.07337 18.2759 4.99369 18.2495C4.98756 18.2444 4.87182 18.2112 4.72428 18.1475C4.37067 18.0153 4.07318 17.7657 3.88163 17.4404C3.79323 17.3062 3.73865 17.2016 3.73433 17.1928C3.6945 17.1189 3.71261 17.0257 3.78891 16.9161C3.86513 16.8144 3.95394 16.7226 4.05321 16.6432C4.1861 16.5339 4.32568 16.433 4.47113 16.3412L6.10728 14.5811C6.54908 14.1464 6.94016 13.6631 7.27307 13.1404C7.35088 13.0311 7.40302 12.9057 7.42556 12.7735C7.42507 12.7665 7.42667 12.7594 7.43016 12.7533C7.43364 12.7471 7.43884 12.7421 7.44515 12.7389C7.45145 12.7357 7.45859 12.7345 7.46562 12.7353C7.47265 12.7361 7.47864 12.7397 7.48404 12.7443ZM7.95142 13.4459C7.79397 13.3151 7.65606 13.1625 7.54194 12.9926C7.51405 12.9496 7.49165 12.9126 7.47472 12.8814C7.4385 12.9844 7.39176 13.0834 7.3352 13.1768C7.21655 13.3752 7.0842 13.5652 6.93916 13.7452C6.7302 14.0098 6.46737 14.3075 6.15924 14.6312L4.51728 16.3982C4.51565 16.4007 4.5137 16.403 4.51149 16.4051C4.3662 16.4971 4.22687 16.5981 4.09434 16.7077C3.85037 16.9129 3.7433 17.0763 3.79318 17.1678C3.79318 17.1678 3.84875 17.2758 3.9378 17.4092C4.12147 17.723 4.40814 17.9636 4.74906 18.0899C4.89583 18.1531 5.01043 18.1892 5.01196 18.1904C5.11299 18.2256 5.25301 18.0899 5.41271 17.814C5.49767 17.6645 5.57303 17.5097 5.63835 17.3506C5.63999 17.3481 5.64193 17.3458 5.64414 17.3437L7.09979 15.4191C7.38245 15.0558 7.6405 14.7436 7.86579 14.4954C8.01853 14.3237 8.18111 14.1612 8.35271 14.0084C8.4243 13.9446 8.50088 13.8866 8.58171 13.8351C8.45844 13.7912 8.34149 13.7313 8.23391 13.6568C8.07833 13.5497 7.95296 13.4471 7.95142 13.4459Z" fill="#1F1B1C"/>
<path d="M4.99264 16.9719C5.08627 17.0755 5.19376 17.1657 5.31207 17.2399C5.37168 17.2718 5.43389 17.2987 5.49799 17.3202C5.56328 17.344 5.62993 17.3638 5.69763 17.3794C5.62626 17.3999 5.55079 17.4013 5.47868 17.3836C5.40802 17.3609 5.34182 17.3261 5.283 17.2808C5.22443 17.2388 5.16911 17.1923 5.11753 17.142C5.069 17.0898 5.02474 17.0339 4.9851 16.9747C4.9851 16.9747 4.99264 16.9719 4.99264 16.9719Z" fill="#1F1B1C"/>
</svg>
