<svg width="13" height="13" viewBox="0 0 13 13" fill="none" xmlns="http://www.w3.org/2000/svg">
<path d="M1.91693 6.47493C1.91693 6.38927 1.90003 6.30445 1.86719 6.22534C1.83434 6.14623 1.78621 6.07437 1.72555 6.0139C1.66489 5.95342 1.59289 5.90551 1.51367 5.87291C1.43446 5.84031 1.34959 5.82367 1.26393 5.82393H0.614931C0.448774 5.83315 0.292458 5.90565 0.178093 6.02654C0.0637283 6.14743 0 6.30752 0 6.47393C0 6.64034 0.0637283 6.80044 0.178093 6.92132C0.292458 7.04221 0.448774 7.11471 0.614931 7.12393H1.26393C1.34942 7.12419 1.43413 7.10762 1.51321 7.07514C1.59229 7.04267 1.66421 6.99494 1.72484 6.93467C1.78548 6.87441 1.83365 6.80279 1.86661 6.72391C1.89957 6.64502 1.91667 6.56042 1.91693 6.47493ZM2.33393 9.72993L1.87193 10.1919C1.7502 10.3137 1.68181 10.4788 1.68181 10.6509C1.68181 10.8231 1.7502 10.9882 1.87193 11.1099C1.99366 11.2317 2.15877 11.3001 2.33093 11.3001C2.50309 11.3001 2.6682 11.2317 2.78993 11.1099L3.25193 10.6479C3.35883 10.5234 3.41477 10.3631 3.40854 10.1991C3.40231 10.0352 3.33438 9.87957 3.21834 9.76353C3.10229 9.64748 2.94671 9.57955 2.78272 9.57332C2.61873 9.56709 2.45844 9.62303 2.33393 9.72993ZM6.47493 1.91693C6.56059 1.91693 6.64541 1.90003 6.72452 1.86719C6.80363 1.83434 6.87549 1.78621 6.93597 1.72555C6.99644 1.66489 7.04435 1.59289 7.07695 1.51367C7.10955 1.43446 7.12619 1.34959 7.12593 1.26393V0.614931C7.11671 0.448774 7.04421 0.292458 6.92332 0.178093C6.80244 0.0637283 6.64234 0 6.47593 0C6.30952 0 6.14943 0.0637283 6.02854 0.178093C5.90765 0.292458 5.83515 0.448774 5.82593 0.614931V1.26393C5.82567 1.34942 5.84225 1.43413 5.87472 1.51321C5.90719 1.59229 5.95492 1.66421 6.01519 1.72484C6.07545 1.78548 6.14707 1.83365 6.22596 1.86661C6.30484 1.89957 6.38944 1.91667 6.47493 1.91693ZM10.1639 3.44093C10.3348 3.44023 10.4986 3.37235 10.6199 3.25193L11.0819 2.78993C11.15 2.73153 11.2052 2.65971 11.2441 2.57897C11.2831 2.49823 11.305 2.41031 11.3084 2.32072C11.3118 2.23113 11.2966 2.14181 11.2639 2.05834C11.2312 1.97488 11.1816 1.89908 11.1182 1.83568C11.0548 1.77229 10.979 1.72267 10.8955 1.68994C10.8121 1.65721 10.7227 1.64208 10.6331 1.64548C10.5436 1.64888 10.4556 1.67075 10.3749 1.70972C10.2942 1.74869 10.2223 1.80391 10.1639 1.87193L9.73393 2.33393C9.64454 2.42279 9.58301 2.53579 9.55687 2.65909C9.53073 2.78238 9.54111 2.91063 9.58675 3.02812C9.63239 3.1456 9.71129 3.24723 9.81381 3.32055C9.91633 3.39387 10.038 3.43571 10.1639 3.44093ZM2.34693 3.25193C2.46973 3.36824 2.63308 3.43201 2.8022 3.42967C2.97133 3.42733 3.13285 3.35906 3.25238 3.2394C3.37192 3.11973 3.44001 2.95813 3.44217 2.78901C3.44433 2.61989 3.38037 2.4566 3.26393 2.33393L2.80193 1.87193C2.67901 1.75415 2.51501 1.68895 2.34478 1.69017C2.17455 1.69139 2.0115 1.75894 1.89028 1.87846C1.76906 1.99799 1.69923 2.16007 1.69561 2.33027C1.692 2.50047 1.75489 2.66537 1.87093 2.78993L2.34693 3.25193ZM12.3349 5.82393H11.6839C11.5955 5.81903 11.5071 5.8322 11.4239 5.86265C11.3408 5.8931 11.2648 5.94018 11.2005 6.00102C11.1362 6.06186 11.0849 6.13518 11.0499 6.21649C11.0149 6.2978 10.9969 6.3854 10.9969 6.47393C10.9969 6.56246 11.0149 6.65006 11.0499 6.73137C11.0849 6.81268 11.1362 6.886 11.2005 6.94684C11.2648 7.00768 11.3408 7.05476 11.4239 7.08521C11.5071 7.11566 11.5955 7.12884 11.6839 7.12393H12.3349C12.5011 7.11471 12.6574 7.04221 12.7718 6.92132C12.8861 6.80044 12.9499 6.64034 12.9499 6.47393C12.9499 6.30752 12.8861 6.14743 12.7718 6.02654C12.6574 5.90565 12.5011 5.83315 12.3349 5.82393ZM10.6159 9.73093C10.4923 9.66239 10.3497 9.63595 10.2097 9.65563C10.0697 9.6753 9.93993 9.74001 9.83997 9.83997C9.74001 9.93993 9.6753 10.0697 9.65563 10.2097C9.63595 10.3497 9.66239 10.4923 9.73093 10.6159L10.1929 11.0779C10.3147 11.1997 10.4798 11.2681 10.6519 11.2681C10.8241 11.2681 10.9892 11.1997 11.1109 11.0779C11.2327 10.9562 11.3011 10.7911 11.3011 10.6189C11.3011 10.4468 11.2327 10.2817 11.1109 10.1599L10.6159 9.73093ZM6.47493 2.89393C5.76668 2.89393 5.07433 3.10395 4.48543 3.49744C3.89654 3.89092 3.43756 4.4502 3.16652 5.10454C2.89548 5.75888 2.82456 6.4789 2.96274 7.17355C3.10091 7.8682 3.44197 8.50627 3.94278 9.00708C4.44359 9.50789 5.08167 9.84895 5.77631 9.98712C6.47096 10.1253 7.19098 10.0544 7.84532 9.78334C8.49966 9.51231 9.05894 9.05332 9.45242 8.46443C9.84591 7.87554 10.0559 7.18319 10.0559 6.47493C10.0559 5.52519 9.67865 4.61435 9.00708 3.94278C8.33551 3.27121 7.42467 2.89393 6.47493 2.89393ZM6.47493 8.75393C6.02419 8.75393 5.58357 8.62027 5.20879 8.36985C4.83401 8.11943 4.5419 7.7635 4.36941 7.34707C4.19692 6.93063 4.15178 6.4724 4.23972 6.03032C4.32766 5.58824 4.54471 5.18216 4.86343 4.86343C5.18216 4.54471 5.58824 4.32766 6.03032 4.23972C6.4724 4.15178 6.93063 4.19692 7.34707 4.36941C7.7635 4.5419 8.11943 4.83401 8.36985 5.20879C8.62027 5.58357 8.75393 6.02419 8.75393 6.47493C8.75393 7.07936 8.51382 7.65903 8.08643 8.08643C7.65903 8.51382 7.07936 8.75393 6.47493 8.75393ZM6.47493 11.0329C6.30227 11.0329 6.13669 11.1015 6.0146 11.2236C5.89252 11.3457 5.82393 11.5113 5.82393 11.6839V12.3349C5.83315 12.5011 5.90565 12.6574 6.02654 12.7718C6.14743 12.8861 6.30752 12.9499 6.47393 12.9499C6.64034 12.9499 6.80044 12.8861 6.92132 12.7718C7.04221 12.6574 7.11471 12.5011 7.12393 12.3349V11.6839C7.12393 11.5116 7.05562 11.3463 6.93397 11.2243C6.81231 11.1023 6.64724 11.0335 6.47493 11.0329Z" fill="#F6BC03"/>
</svg>
