<svg width="12" height="12" viewBox="0 0 12 12" fill="none" xmlns="http://www.w3.org/2000/svg">
<path d="M7.38 11.4257C8.86585 11.1078 10.1803 10.2485 11.0677 9.01503L10.6765 9.09823C9.49415 9.3468 8.26605 9.26275 7.12861 8.85542C5.99118 8.4481 4.98891 7.73343 4.23316 6.79082C3.47741 5.8482 2.99776 4.71453 2.84748 3.51574C2.6972 2.31695 2.88218 1.09996 3.38187 -3.42014e-05C2.05148 0.662037 1.00856 1.78704 0.448977 3.16369C-0.110602 4.54034 -0.148341 6.07392 0.342848 7.47643C0.834038 8.87894 1.82036 10.0539 3.11658 10.7806C4.41281 11.5073 5.92975 11.7358 7.38252 11.4231L7.38 11.4257Z" fill="#2C3C68"/>
</svg>
