<svg width="33" height="34" viewBox="0 0 33 34" fill="none" xmlns="http://www.w3.org/2000/svg">
<path d="M25.5654 18.2581C29.3155 13.9442 29.7092 8.06953 26.4096 5.20124C23.11 2.33295 17.348 3.5411 13.598 7.85502C10.5486 11.3629 9.73475 15.8919 11.2992 18.9743L10.3892 21.9357L5.87351 27.1303C5.68002 27.3529 5.58288 27.6433 5.60346 27.9375C5.62403 28.2317 5.76063 28.5056 5.98321 28.6991C6.20579 28.8926 6.49611 28.9897 6.79032 28.9692C7.08452 28.9486 7.3585 28.812 7.55198 28.5894L12.0676 23.3948L14.8629 22.0616C18.1407 23.1884 22.5161 21.766 25.5654 18.2581ZM15.2765 9.31409C18.1946 5.95714 22.5473 4.84896 24.9186 6.91029C27.2899 8.97163 26.8278 13.4023 23.8802 16.7932C20.9325 20.1841 16.6093 21.2583 14.238 19.197C11.8667 17.1356 12.3288 12.705 15.2765 9.31409Z" fill="#D0D0D0" stroke="white"/>
<path d="M20.9903 8.40792L15.2063 14.6119" stroke="#ABABAB" stroke-width="0.499806"/>
<path d="M24.0943 11.302L18.3103 17.506" stroke="#ABABAB" stroke-width="0.499806"/>
<path d="M24.2024 14.298L17.9984 8.51396" stroke="#ABABAB" stroke-width="0.499806"/>
<path d="M21.3084 17.401L15.1044 11.617" stroke="#ABABAB" stroke-width="0.499806"/>
</svg>
