<svg width="10" height="10" viewBox="0 0 10 10" fill="none" xmlns="http://www.w3.org/2000/svg">
<path d="M9.344 7.709C9.52005 7.31823 9.6315 6.90148 9.674 6.475L6.828 7.08V5.917L9.343 5.382C9.51905 4.99123 9.6305 4.57448 9.673 4.148L6.827 4.748V0.569C6.39156 0.813771 6.00562 1.13765 5.689 1.524V5L4.551 5.242V0C4.11447 0.244444 3.72749 0.568341 3.41 0.955V5.479L0.867 6.02C0.690997 6.41078 0.579549 6.82753 0.537 7.254L3.41 6.643V8.108L0.33 8.763C0.153634 9.1547 0.0421773 9.5725 0 10L3.228 9.314C3.48637 9.25972 3.71384 9.10784 3.863 8.89L4.455 8.012C4.5195 7.91844 4.55435 7.80763 4.555 7.694V6.4L5.69 6.159V8.486L9.344 7.709Z" fill="#1E1B1C"/>
</svg>
