<svg width="14" height="14" viewBox="0 0 14 14" fill="none" xmlns="http://www.w3.org/2000/svg">
<path fill-rule="evenodd" clip-rule="evenodd" d="M13.0375 2.77162C13.0375 3.31494 12.8696 3.84498 12.5568 4.28922C12.244 4.73345 11.8016 5.07018 11.29 5.25331C10.7785 5.43644 10.2229 5.45704 9.69922 5.31228C9.17554 5.16752 8.70938 4.86448 8.36454 4.44462L5.35054 5.95262C5.45011 6.36368 5.45011 6.79257 5.35054 7.20362L8.36454 8.71262C8.77469 8.21429 9.354 7.88446 9.99187 7.78609C10.6297 7.68772 11.2815 7.8277 11.8227 8.17932C12.364 8.53094 12.7567 9.06956 12.9261 9.69236C13.0954 10.3152 13.0295 10.9785 12.7409 11.5558C12.4522 12.1331 11.9611 12.5838 11.3613 12.822C10.7614 13.0602 10.0948 13.0692 9.48882 12.8472C8.88279 12.6251 8.37974 12.1877 8.07571 11.6184C7.77168 11.0491 7.68796 10.3877 7.84054 9.76062L4.82254 8.25162C4.47763 8.67137 4.01146 8.9743 3.4878 9.11896C2.96414 9.26362 2.40857 9.24294 1.89711 9.05976C1.38564 8.87658 0.943273 8.53985 0.630518 8.09563C0.317763 7.6514 0.149902 7.1214 0.149902 6.57812C0.149902 6.03485 0.317763 5.50484 0.630518 5.06062C0.943273 4.6164 1.38564 4.27966 1.89711 4.09648C2.40857 3.9133 2.96414 3.89263 3.4878 4.03729C4.01146 4.18195 4.47763 4.48488 4.82254 4.90462L7.83954 3.39762C7.75332 3.03621 7.74447 2.66066 7.81358 2.29558C7.88269 1.93051 8.0282 1.58418 8.24057 1.27929C8.45293 0.974409 8.72735 0.717863 9.04582 0.526481C9.36429 0.3351 9.71963 0.213207 10.0885 0.168798C10.4574 0.12439 10.8315 0.158468 11.1863 0.268798C11.5411 0.379128 11.8686 0.563218 12.1472 0.808992C12.4259 1.05477 12.6494 1.35667 12.8032 1.69491C12.957 2.03315 13.0375 2.40007 13.0395 2.77162H13.0375ZM8.93754 2.77162C8.93754 3.06098 9.02334 3.34383 9.1841 3.58442C9.34486 3.82501 9.57335 4.01253 9.84067 4.12326C10.108 4.23399 10.4022 4.26296 10.686 4.20651C10.9698 4.15006 11.2304 4.01072 11.435 3.80612C11.6396 3.60152 11.779 3.34083 11.8354 3.05704C11.8919 2.77325 11.8629 2.47909 11.7522 2.21176C11.6414 1.94443 11.4539 1.71594 11.2133 1.55518C10.9728 1.39443 10.6899 1.30862 10.4005 1.30862C10.0127 1.30889 9.64084 1.46314 9.36669 1.73748C9.09254 2.01182 8.93854 2.38378 8.93854 2.77162H8.93754ZM8.93754 10.3866C8.93754 10.676 9.02334 10.9588 9.1841 11.1994C9.34486 11.44 9.57335 11.6275 9.84067 11.7383C10.108 11.849 10.4022 11.878 10.686 11.8215C10.9698 11.7651 11.2304 11.6257 11.435 11.4211C11.6396 11.2165 11.779 10.9558 11.8354 10.672C11.8919 10.3882 11.8629 10.0941 11.7522 9.82676C11.6414 9.55943 11.4539 9.33094 11.2133 9.17018C10.9728 9.00943 10.6899 8.92362 10.4005 8.92362C10.0127 8.92389 9.64084 9.07814 9.36669 9.35248C9.09254 9.62682 8.93854 9.99879 8.93854 10.3866H8.93754ZM2.78654 8.03562C2.49702 8.03542 2.21406 7.94932 1.9735 7.78823C1.73293 7.62713 1.54558 7.39827 1.43515 7.13064C1.32472 6.863 1.29618 6.56861 1.35315 6.28475C1.41012 6.00089 1.55003 5.74031 1.75518 5.536C1.96032 5.3317 2.22147 5.19286 2.50557 5.13706C2.78966 5.08125 3.08393 5.111 3.35111 5.22252C3.61829 5.33405 3.84637 5.52235 4.00648 5.76357C4.16659 6.00479 4.25153 6.2881 4.25054 6.57762C4.24922 6.96494 4.09436 7.33593 3.81992 7.60924C3.54548 7.88256 3.17386 8.03589 2.78654 8.03562Z" fill="#1E1B1C" stroke="white" stroke-width="0.3"/>
</svg>
