<svg width="19" height="26" viewBox="0 0 19 26" fill="none" xmlns="http://www.w3.org/2000/svg">
<path d="M7.702 0V4.774C6.24256 5.03001 4.90551 5.75241 3.89147 6.8328C2.87744 7.91319 2.24112 9.29328 2.078 10.766H1.502C1.46823 10.7681 1.43475 10.7735 1.402 10.782C1.02854 10.8139 0.679927 10.9822 0.422787 11.2549C0.165647 11.5276 0.0180186 11.8855 0.00811944 12.2602C-0.00177976 12.6349 0.126744 13.0001 0.369126 13.286C0.611508 13.5719 0.950747 13.7585 1.322 13.81C1.338 13.81 1.354 13.824 1.37 13.826C1.40275 13.8345 1.43624 13.8398 1.47 13.842C1.498 13.842 1.522 13.842 1.55 13.842H16.995C17.023 13.842 17.047 13.828 17.075 13.826C17.4553 13.7922 17.8092 13.6172 18.067 13.3355C18.3248 13.0538 18.4677 12.6858 18.4677 12.304C18.4677 11.9222 18.3248 11.5542 18.067 11.2725C17.8092 10.9908 17.4553 10.8158 17.075 10.782C17.038 10.7747 17.0006 10.7694 16.963 10.766H16.402C16.2389 9.29328 15.6026 7.91319 14.5885 6.8328C13.5745 5.75241 12.2374 5.03001 10.778 4.774V0H9.753V4.63C9.581 4.618 9.415 4.614 9.24 4.614C9.065 4.614 8.9 4.614 8.727 4.63V0H7.702ZM9.24 5.64C10.7139 5.58495 12.1558 6.07884 13.2864 7.02601C14.4171 7.97319 15.1559 9.30624 15.36 10.767H3.12C3.32405 9.30624 4.06294 7.97319 5.19357 7.02601C6.32419 6.07884 7.76609 5.58495 9.24 5.64ZM1.534 11.792H16.979C17.1081 11.8037 17.2281 11.8638 17.3148 11.9602C17.4015 12.0566 17.4486 12.1823 17.4465 12.3119C17.4445 12.4416 17.3935 12.5657 17.3039 12.6593C17.2142 12.753 17.0924 12.8093 16.963 12.817H1.55C1.53402 12.818 1.51798 12.818 1.502 12.817C1.37254 12.8039 1.25288 12.7422 1.16715 12.6443C1.08142 12.5464 1.036 12.4196 1.04006 12.2896C1.04412 12.1595 1.09736 12.0358 1.18903 11.9435C1.2807 11.8512 1.40398 11.797 1.534 11.792ZM5.134 15.381C4.93127 15.381 4.7331 15.4411 4.56454 15.5537C4.39598 15.6664 4.2646 15.8265 4.18702 16.0138C4.10944 16.201 4.08915 16.4071 4.1287 16.606C4.16825 16.8048 4.26587 16.9874 4.40922 17.1308C4.55257 17.2741 4.7352 17.3718 4.93403 17.4113C5.13286 17.4509 5.33896 17.4306 5.52625 17.353C5.71355 17.2754 5.87363 17.144 5.98626 16.9755C6.09889 16.8069 6.159 16.6087 6.159 16.406C6.159 16.135 6.0517 15.8751 5.86056 15.683C5.66941 15.4909 5.40998 15.3823 5.139 15.381H5.134ZM9.234 15.381C9.03127 15.381 8.8331 15.4411 8.66454 15.5537C8.49598 15.6664 8.3646 15.8265 8.28702 16.0138C8.20944 16.201 8.18915 16.4071 8.22869 16.606C8.26824 16.8048 8.36587 16.9874 8.50922 17.1308C8.65256 17.2741 8.8352 17.3718 9.03403 17.4113C9.23286 17.4509 9.43896 17.4306 9.62625 17.353C9.81354 17.2754 9.97363 17.144 10.0863 16.9755C10.1989 16.8069 10.259 16.6087 10.259 16.406C10.259 16.1352 10.1518 15.8754 9.96091 15.6833C9.76998 15.4913 9.51081 15.3826 9.24 15.381H9.234ZM13.334 15.381C13.1313 15.381 12.9331 15.4411 12.7645 15.5537C12.596 15.6664 12.4646 15.8265 12.387 16.0138C12.3094 16.201 12.2891 16.4071 12.3287 16.606C12.3682 16.8048 12.4659 16.9874 12.6092 17.1308C12.7526 17.2741 12.9352 17.3718 13.134 17.4113C13.3329 17.4509 13.539 17.4306 13.7263 17.353C13.9135 17.2754 14.0736 17.144 14.1863 16.9755C14.2989 16.8069 14.359 16.6087 14.359 16.406C14.359 16.1355 14.2521 15.876 14.0616 15.684C13.8711 15.492 13.6125 15.3831 13.342 15.381H13.334ZM3.08 19.481C2.87766 19.4824 2.68026 19.5436 2.51267 19.657C2.34507 19.7704 2.21479 19.9308 2.13822 20.1181C2.06165 20.3054 2.04223 20.5112 2.08241 20.7095C2.12258 20.9078 2.22056 21.0898 2.36398 21.2325C2.5074 21.3752 2.68986 21.4723 2.88837 21.5115C3.08688 21.5508 3.29255 21.5303 3.47947 21.4529C3.66639 21.3754 3.8262 21.2443 3.93876 21.0762C4.05132 20.908 4.1116 20.7103 4.112 20.508C4.11213 20.3734 4.08575 20.2401 4.03436 20.1157C3.98297 19.9913 3.90758 19.8782 3.81249 19.7829C3.7174 19.6877 3.60448 19.612 3.48018 19.5604C3.35587 19.5088 3.22261 19.4821 3.088 19.482L3.08 19.481ZM7.18 19.481C6.97766 19.4824 6.78026 19.5436 6.61267 19.657C6.44507 19.7704 6.31479 19.9308 6.23822 20.1181C6.16165 20.3054 6.14223 20.5112 6.18241 20.7095C6.22258 20.9078 6.32056 21.0898 6.46398 21.2325C6.6074 21.3752 6.78986 21.4723 6.98837 21.5115C7.18688 21.5508 7.39255 21.5303 7.57947 21.4529C7.76639 21.3754 7.9262 21.2443 8.03876 21.0762C8.15132 20.908 8.2116 20.7103 8.212 20.508C8.21227 20.2365 8.1048 19.976 7.9132 19.7836C7.72159 19.5913 7.4615 19.4828 7.19 19.482L7.18 19.481ZM11.28 19.481C11.0777 19.4824 10.8803 19.5436 10.7127 19.657C10.5451 19.7704 10.4148 19.9308 10.3382 20.1181C10.2617 20.3054 10.2422 20.5112 10.2824 20.7095C10.3226 20.9078 10.4206 21.0898 10.564 21.2325C10.7074 21.3752 10.8899 21.4723 11.0884 21.5115C11.2869 21.5508 11.4925 21.5303 11.6795 21.4529C11.8664 21.3754 12.0262 21.2443 12.1388 21.0762C12.2513 20.908 12.3116 20.7103 12.312 20.508C12.3123 20.2367 12.2049 19.9763 12.0136 19.784C11.8222 19.5917 11.5623 19.4831 11.291 19.482L11.28 19.481ZM15.38 19.481C15.1773 19.481 14.9791 19.5411 14.8105 19.6537C14.642 19.7664 14.5106 19.9265 14.433 20.1137C14.3554 20.301 14.3351 20.5071 14.3747 20.706C14.4142 20.9048 14.5119 21.0874 14.6552 21.2308C14.7986 21.3741 14.9812 21.4718 15.18 21.5113C15.3789 21.5509 15.585 21.5306 15.7723 21.453C15.9595 21.3754 16.1196 21.244 16.2323 21.0755C16.3449 20.9069 16.405 20.7087 16.405 20.506C16.4048 20.2366 16.2984 19.9781 16.109 19.7864C15.9197 19.5948 15.6624 19.4854 15.393 19.482L15.38 19.481ZM1.025 23.581C0.822274 23.581 0.624101 23.6411 0.455541 23.7537C0.286981 23.8664 0.155604 24.0265 0.0780238 24.2137C0.000443935 24.401 -0.0198542 24.6071 0.0196956 24.806C0.0592455 25.0048 0.156867 25.1874 0.300216 25.3308C0.443565 25.4741 0.626203 25.5718 0.825033 25.6113C1.02386 25.6509 1.22996 25.6306 1.41725 25.553C1.60455 25.4754 1.76463 25.344 1.87726 25.1755C1.98989 25.0069 2.05 24.8087 2.05 24.606C2.04923 24.3367 1.94254 24.0786 1.75299 23.8874C1.56343 23.6961 1.30624 23.5872 1.037 23.584L1.025 23.581ZM5.125 23.581C4.92227 23.581 4.7241 23.6411 4.55554 23.7537C4.38698 23.8664 4.2556 24.0265 4.17802 24.2137C4.10044 24.401 4.08015 24.6071 4.1197 24.806C4.15925 25.0048 4.25687 25.1874 4.40022 25.3308C4.54357 25.4741 4.7262 25.5718 4.92503 25.6113C5.12386 25.6509 5.32996 25.6306 5.51725 25.553C5.70455 25.4754 5.86463 25.344 5.97726 25.1755C6.08989 25.0069 6.15 24.8087 6.15 24.606C6.14924 24.3371 6.04282 24.0792 5.8537 23.8881C5.66458 23.6969 5.4079 23.5877 5.139 23.584L5.125 23.581ZM9.225 23.581C9.02227 23.581 8.8241 23.6411 8.65554 23.7537C8.48698 23.8664 8.3556 24.0265 8.27802 24.2137C8.20044 24.401 8.18015 24.6071 8.2197 24.806C8.25924 25.0048 8.35687 25.1874 8.50022 25.3308C8.64356 25.4741 8.8262 25.5718 9.02503 25.6113C9.22386 25.6509 9.42996 25.6306 9.61725 25.553C9.80455 25.4754 9.96463 25.344 10.0773 25.1755C10.1899 25.0069 10.25 24.8087 10.25 24.606C10.2492 24.3373 10.143 24.0796 9.95406 23.8884C9.76515 23.6972 9.50872 23.5879 9.24 23.584L9.225 23.581ZM13.325 23.581C13.1223 23.581 12.9241 23.6411 12.7555 23.7537C12.587 23.8664 12.4556 24.0265 12.378 24.2137C12.3004 24.401 12.2801 24.6071 12.3197 24.806C12.3592 25.0048 12.4569 25.1874 12.6002 25.3308C12.7436 25.4741 12.9262 25.5718 13.125 25.6113C13.3239 25.6509 13.53 25.6306 13.7172 25.553C13.9045 25.4754 14.0646 25.344 14.1773 25.1755C14.2899 25.0069 14.35 24.8087 14.35 24.606C14.3493 24.3376 14.2433 24.0802 14.0548 23.8891C13.8663 23.698 13.6104 23.5884 13.342 23.584L13.325 23.581ZM17.425 23.581C17.2223 23.581 17.0241 23.6411 16.8555 23.7537C16.687 23.8664 16.5556 24.0265 16.478 24.2137C16.4004 24.401 16.3801 24.6071 16.4197 24.806C16.4592 25.0048 16.5569 25.1874 16.7002 25.3308C16.8436 25.4741 17.0262 25.5718 17.225 25.6113C17.4239 25.6509 17.63 25.6306 17.8173 25.553C18.0045 25.4754 18.1646 25.344 18.2773 25.1755C18.3899 25.0069 18.45 24.8087 18.45 24.606C18.4493 24.3378 18.3434 24.0805 18.1551 23.8894C17.9669 23.6984 17.7112 23.5887 17.443 23.584L17.425 23.581Z" fill="#D0D0D0"/>
</svg>
