<svg width="15" height="15" viewBox="0 0 15 15" fill="none" xmlns="http://www.w3.org/2000/svg">
<path fill-rule="evenodd" clip-rule="evenodd" d="M11.392 14.5C11.5567 14.5 11.7147 14.4346 11.8311 14.3181C11.9476 14.2017 12.013 14.0437 12.013 13.879V2.48601L13.381 4.30901C13.43 4.37428 13.4913 4.42926 13.5616 4.47081C13.6318 4.51236 13.7095 4.53968 13.7903 4.55119C13.8711 4.56271 13.9534 4.5582 14.0324 4.53792C14.1115 4.51764 14.1857 4.48199 14.251 4.43301C14.3163 4.38403 14.3712 4.32267 14.4128 4.25244C14.4544 4.18221 14.4817 4.10448 14.4932 4.02369C14.5047 3.9429 14.5002 3.86064 14.4799 3.7816C14.4596 3.70255 14.424 3.62828 14.375 3.56301L11.89 0.25001C11.8119 0.145212 11.7028 0.0677139 11.5781 0.0285475C11.4534 -0.0106189 11.3196 -0.00945705 11.1956 0.0318677C11.0716 0.0731924 10.9639 0.152574 10.8876 0.258711C10.8114 0.364847 10.7706 0.49233 10.771 0.62301V13.879C10.771 14.0437 10.8364 14.2017 10.9529 14.3181C11.0693 14.4346 11.2273 14.5 11.392 14.5Z" fill="black"/>
<path d="M8.05227e-07 3.93499C8.05227e-07 4.09969 0.0654274 4.25764 0.181887 4.3741C0.298348 4.49056 0.456301 4.55599 0.621001 4.55599H8.078C8.24283 4.55599 8.40091 4.49051 8.51747 4.37396C8.63402 4.2574 8.6995 4.09932 8.6995 3.93449C8.6995 3.76966 8.63402 3.61158 8.51747 3.49502C8.40091 3.37847 8.24283 3.31299 8.078 3.31299H0.621001C0.539366 3.31299 0.458532 3.32908 0.383123 3.36035C0.307715 3.39163 0.239212 3.43746 0.181534 3.49523C0.123855 3.553 0.0781336 3.62158 0.0469843 3.69703C0.015835 3.77249 -0.000130652 3.85335 8.05227e-07 3.93499Z" fill="black"/>
<path opacity="0.7" d="M1.65698 8.07806C1.65698 8.24275 1.72241 8.40071 1.83887 8.51717C1.95533 8.63363 2.11328 8.69905 2.27798 8.69905H8.07798C8.24282 8.69905 8.4009 8.63358 8.51745 8.51702C8.634 8.40047 8.69948 8.24239 8.69948 8.07755C8.69948 7.91272 8.634 7.75464 8.51745 7.63809C8.4009 7.52153 8.24282 7.45605 8.07798 7.45605H2.27798C2.19635 7.45605 2.11551 7.47215 2.04011 7.50342C1.9647 7.53469 1.89619 7.58052 1.83852 7.6383C1.78084 7.69607 1.73512 7.76464 1.70397 7.8401C1.67282 7.91556 1.65685 7.99642 1.65698 8.07806Z" fill="black"/>
<path opacity="0.4" d="M3.31397 12.2211C3.31397 12.3858 3.37939 12.5438 3.49585 12.6602C3.61231 12.7767 3.77027 12.8421 3.93497 12.8421H8.07797C8.2428 12.8421 8.40088 12.7766 8.51743 12.6601C8.63399 12.5435 8.69947 12.3855 8.69947 12.2206C8.69947 12.0558 8.63399 11.8977 8.51743 11.7812C8.40088 11.6646 8.2428 11.5991 8.07797 11.5991H3.93497C3.85333 11.5991 3.7725 11.6152 3.69709 11.6465C3.62168 11.6778 3.55318 11.7236 3.4955 11.7814C3.43782 11.8391 3.3921 11.9077 3.36095 11.9832C3.3298 12.0586 3.31383 12.1395 3.31397 12.2211Z" fill="black"/>
</svg>
