<svg width="23" height="23" viewBox="0 0 23 23" fill="none" xmlns="http://www.w3.org/2000/svg">
<path d="M8.13337 3.875C9.57337 1.292 10.2934 0 11.3694 0C12.4454 0 13.1694 1.292 14.6064 3.875L14.9794 4.543C15.1987 5.04784 15.5158 5.50428 15.9124 5.886C16.3752 6.15933 16.8897 6.33367 17.4234 6.398L18.1474 6.562C20.9474 7.195 22.3424 7.511 22.6744 8.581C23.0064 9.651 22.0534 10.766 20.1464 13L19.6534 13.577C19.2565 13.9585 18.9387 14.4145 18.7184 14.919C18.6123 15.4672 18.6123 16.0308 18.7184 16.579L18.7934 17.348C19.0814 20.322 19.2254 21.81 18.3544 22.471C17.4834 23.132 16.1744 22.529 13.5544 21.324L12.8774 21.012C12.4151 20.7379 11.9009 20.5629 11.3674 20.498C10.8339 20.5629 10.3197 20.7379 9.85737 21.012L9.18037 21.324C6.56237 22.529 5.25237 23.132 4.38036 22.471C3.50836 21.81 3.65336 20.323 3.94136 17.348L4.01636 16.579C4.12257 16.0308 4.12257 15.4672 4.01636 14.919C3.79632 14.4146 3.47892 13.9586 3.08236 13.577L2.59236 13C0.686365 10.771 -0.267635 9.656 0.0653649 8.586C0.398365 7.516 1.80036 7.2 4.59336 6.562L5.31636 6.4C5.85001 6.33564 6.36452 6.16131 6.82736 5.888C7.22415 5.50569 7.54126 5.04856 7.76037 4.543L8.13337 3.875Z" fill="#FFB240"/>
</svg>
