<svg width="15" height="15" viewBox="0 0 15 15" fill="none" xmlns="http://www.w3.org/2000/svg">
<path d="M5.1674 2.724C5.9944 1.241 6.4074 0.5 7.0254 0.5C7.6434 0.5 8.0564 1.241 8.8834 2.724L9.0974 3.108C9.22312 3.39778 9.40494 3.65981 9.6324 3.879C9.89833 4.03569 10.1939 4.13546 10.5004 4.172L10.9154 4.266C12.5154 4.629 13.3224 4.811 13.5154 5.425C13.7084 6.039 13.1594 6.679 12.0654 7.958L11.7824 8.289C11.5548 8.50791 11.3727 8.76957 11.2464 9.059C11.1855 9.37374 11.1855 9.69726 11.2464 10.012L11.2894 10.454C11.4544 12.161 11.5374 13.015 11.0374 13.394C10.5374 13.773 9.7864 13.427 8.2834 12.736L7.8944 12.557C7.62897 12.3996 7.33372 12.2992 7.0274 12.262C6.72107 12.2992 6.42583 12.3996 6.1604 12.557L5.7714 12.736C4.2714 13.428 3.5174 13.774 3.0174 13.394C2.5174 13.014 2.6004 12.161 2.7654 10.454L2.8084 10.012C2.8695 9.69727 2.8695 9.37373 2.8084 9.059C2.68212 8.76957 2.49998 8.50791 2.2724 8.289L1.9894 7.958C0.894396 6.679 0.347396 6.039 0.537396 5.425C0.727396 4.811 1.5304 4.625 3.1374 4.266L3.5524 4.172C3.85861 4.13499 4.15383 4.03488 4.4194 3.878C4.64685 3.65881 4.82867 3.39678 4.9544 3.107L5.1674 2.724Z" stroke="#1E1B1C"/>
</svg>
