<svg width="14" height="14" viewBox="0 0 14 14" fill="none" xmlns="http://www.w3.org/2000/svg">
<path d="M1.31009 9.57039C1.90808 10.6062 2.79978 11.4414 3.87245 11.9704C4.94511 12.4994 6.15055 12.6984 7.33633 12.5423C8.52211 12.3862 9.63496 11.8819 10.5342 11.0933C11.4333 10.3047 12.0785 9.26718 12.388 8.11191C12.6975 6.95664 12.6575 5.73554 12.273 4.60302C11.8885 3.4705 11.1768 2.47743 10.2279 1.74939C9.27903 1.02136 8.13555 0.591065 6.9421 0.512923C5.74865 0.434781 4.55882 0.712302 3.52309 1.31039C2.13435 2.11233 1.12103 3.43307 0.706016 4.9821C0.291004 6.53112 0.508296 8.18157 1.31009 9.57039Z" stroke="#1E1B1C"/>
<path d="M7.26893 0.543457C7.2817 2.2365 7.75606 3.894 8.64093 5.33746C9.44867 6.82548 10.647 8.06497 12.1069 8.92246M0.981934 4.17246C2.44316 5.02914 3.64291 6.26832 4.45193 7.75646C5.33676 9.19994 5.81112 10.8574 5.82393 12.5505" stroke="#1E1B1C"/>
</svg>
