<svg width="16" height="16" viewBox="0 0 16 16" fill="none" xmlns="http://www.w3.org/2000/svg">
<path d="M9.84214 4.46816L8.65845 5.65186L9.46031 6.45371L10.644 5.27002L9.84214 4.46816Z" fill="#1E1B1C"/>
<path d="M13.7744 1.32591C13.2878 0.847267 12.7012 0.482428 12.0568 0.257642C11.4124 0.0328561 10.7261 -0.0462868 10.0474 0.0259078C8.56869 0.180311 7.1917 0.850925 6.1584 1.91991C5.11057 2.96806 4.4447 4.33747 4.2674 5.80891V7.10891C4.26313 8.03946 3.89487 8.93139 3.2414 9.59391C3.24154 9.60104 3.24023 9.60812 3.23757 9.61473C3.2349 9.62134 3.23093 9.62735 3.22589 9.63239C3.22085 9.63744 3.21484 9.64141 3.20823 9.64407C3.20161 9.64674 3.19453 9.64804 3.1874 9.64791C3.18027 9.64777 3.17319 9.64908 3.16658 9.65174C3.15996 9.65441 3.15396 9.65838 3.14892 9.66342C3.14387 9.66846 3.1399 9.67447 3.13723 9.68108C3.13457 9.6877 3.13327 9.69478 3.1334 9.70191L0.486401 12.3429C0.332353 12.4946 0.210015 12.6754 0.12651 12.8748C0.0430043 13.0742 0 13.2882 0 13.5044C0 13.7206 0.0430043 13.9346 0.12651 14.134C0.210015 14.3334 0.332353 14.5142 0.486401 14.6659C0.628958 14.8242 0.804193 14.9496 0.999987 15.0335C1.19578 15.1175 1.40747 15.1578 1.6204 15.1519C1.84064 15.1529 2.05892 15.1105 2.26277 15.0271C2.46662 14.9438 2.65203 14.821 2.8084 14.6659L5.4554 12.0189C5.45527 12.0118 5.45657 12.0047 5.45924 11.9981C5.4619 11.9915 5.46587 11.9855 5.47091 11.9804C5.47596 11.9754 5.48196 11.9714 5.48858 11.9687C5.49519 11.9661 5.50227 11.9648 5.5094 11.9649C5.51653 11.965 5.52361 11.9637 5.53023 11.9611C5.53684 11.9584 5.54285 11.9544 5.54789 11.9494C5.55293 11.9444 5.5569 11.9383 5.55957 11.9317C5.56223 11.9251 5.56354 11.918 5.5634 11.9109C6.22591 11.2574 7.11785 10.8892 8.0484 10.8849H9.3484C10.8267 10.7313 12.2037 10.0618 13.2374 8.99391C14.2852 7.94576 14.9511 6.57635 15.1284 5.10491C15.1701 4.41617 15.0716 3.72615 14.8388 3.07659C14.6061 2.42703 14.244 1.83145 13.7744 1.32591ZM5.1314 10.7779L4.2674 9.91391C4.54583 9.57517 4.76493 9.19176 4.9154 8.77991C5.08373 9.03688 5.28325 9.272 5.5094 9.47991C5.72917 9.69336 5.96303 9.8918 6.2094 10.0739C5.8884 10.2919 5.5104 10.5079 5.1314 10.7779ZM12.9634 4.45791L12.1534 5.26791L12.5314 5.64591C12.5826 5.69466 12.6233 5.7533 12.6512 5.81828C12.679 5.88326 12.6934 5.95321 12.6934 6.02391C12.6934 6.0946 12.679 6.16456 12.6512 6.22953C12.6233 6.29451 12.5826 6.35315 12.5314 6.40191C12.4293 6.50003 12.2949 6.55762 12.1534 6.56391C12.0913 6.55984 12.0307 6.54342 11.9751 6.5156C11.9194 6.48778 11.8699 6.44913 11.8294 6.40191L11.4514 6.02391L10.2094 7.21291L10.5874 7.59091C10.6386 7.63966 10.6793 7.69831 10.7072 7.76328C10.735 7.82826 10.7494 7.89821 10.7494 7.96891C10.7494 8.0396 10.735 8.10956 10.7072 8.17453C10.6793 8.23951 10.6386 8.29815 10.5874 8.34691C10.5386 8.3981 10.48 8.43885 10.415 8.4667C10.35 8.49455 10.2801 8.50891 10.2094 8.50891C10.1387 8.50891 10.0688 8.49455 10.0038 8.4667C9.9388 8.43885 9.88015 8.3981 9.8314 8.34691L9.4534 7.96891L8.6434 8.77891C8.59465 8.8301 8.536 8.87085 8.47103 8.8987C8.40605 8.92655 8.33609 8.94091 8.2654 8.94091C8.19471 8.94091 8.12475 8.92655 8.05978 8.8987C7.9948 8.87085 7.93616 8.8301 7.8874 8.77891C7.83621 8.73015 7.79545 8.67151 7.76761 8.60653C7.73976 8.54156 7.7254 8.4716 7.7254 8.40091C7.7254 8.33021 7.73976 8.26026 7.76761 8.19528C7.79545 8.13031 7.83621 8.07166 7.8874 8.02291L8.6974 7.21291L7.8874 6.40291L7.0774 7.21291C7.02865 7.2641 6.97 7.30485 6.90503 7.3327C6.84005 7.36055 6.77009 7.37491 6.6994 7.37491C6.62871 7.37491 6.55875 7.36055 6.49378 7.3327C6.4288 7.30485 6.37015 7.2641 6.3214 7.21291C6.27021 7.16415 6.22945 7.10551 6.20161 7.04053C6.17376 6.97556 6.1594 6.9056 6.1594 6.83491C6.1594 6.76421 6.17376 6.69426 6.20161 6.62928C6.22945 6.56431 6.27021 6.50566 6.3214 6.45691L7.1314 5.64691L6.7534 5.26891C6.65967 5.16737 6.60886 5.03349 6.61162 4.89533C6.61439 4.75717 6.6705 4.62544 6.76822 4.52772C6.86593 4.43001 6.99766 4.37389 7.13583 4.37113C7.27399 4.36837 7.40786 4.41918 7.5094 4.51291L7.8874 4.89091L9.0754 3.70291L8.7004 3.26991C8.64745 3.22103 8.60493 3.16197 8.57537 3.09625C8.54581 3.03053 8.52983 2.95953 8.52839 2.88748C8.52695 2.81544 8.54008 2.74385 8.56699 2.677C8.5939 2.61016 8.63403 2.54944 8.68498 2.49849C8.73593 2.44754 8.79665 2.4074 8.8635 2.3805C8.93034 2.35359 9.00193 2.34046 9.07398 2.3419C9.14602 2.34334 9.21703 2.35932 9.28274 2.38887C9.34846 2.41843 9.40753 2.46096 9.4564 2.51391L9.8344 2.89191L10.6444 2.08191C10.7459 1.98818 10.8798 1.93737 11.018 1.94013C11.1561 1.94289 11.2879 1.99901 11.3856 2.09672C11.4833 2.19444 11.5394 2.32617 11.5422 2.46433C11.5449 2.60249 11.4941 2.73637 11.4004 2.83791L10.5904 3.64791L11.4004 4.45791L12.2104 3.64791C12.2592 3.59672 12.3178 3.55596 12.3828 3.52811C12.4478 3.50027 12.5177 3.48591 12.5884 3.48591C12.6591 3.48591 12.7291 3.50027 12.794 3.52811C12.859 3.55596 12.9176 3.59672 12.9664 3.64791C13.0702 3.75733 13.1279 3.9025 13.1275 4.05331C13.1271 4.20412 13.0687 4.349 12.9644 4.45791H12.9634Z" fill="#1E1B1C"/>
</svg>
