<svg width="18" height="25" viewBox="0 0 18 25" fill="none" xmlns="http://www.w3.org/2000/svg">
<path d="M15.9344 10.318V1.034C15.9344 0.82607 15.8518 0.626657 15.7048 0.479628C15.5578 0.3326 15.3584 0.25 15.1504 0.25H2.60244C2.49949 0.25 2.39754 0.270279 2.30243 0.309678C2.20731 0.349078 2.12088 0.406827 2.04808 0.479628C1.97528 0.552429 1.91752 0.638857 1.87812 0.733976C1.83872 0.829095 1.81845 0.931044 1.81845 1.034V10.318C1.35713 10.481 0.958134 10.7838 0.677013 11.1842C0.395893 11.5847 0.246646 12.0628 0.250057 12.552C0.253469 13.0413 0.409371 13.5173 0.696049 13.9138C0.982726 14.3102 1.3859 14.6075 1.84945 14.764C1.94562 15.7815 2.26153 16.766 2.77534 17.6494C3.28915 18.5329 3.98863 19.2943 4.82544 19.881L3.44645 23.215C3.39709 23.3342 3.37789 23.4637 3.39057 23.592C3.40324 23.7204 3.44739 23.8436 3.5191 23.9509C3.59081 24.0581 3.68786 24.1459 3.80165 24.2067C3.91545 24.2674 4.04246 24.2991 4.17144 24.299H13.5824C13.7114 24.2991 13.8385 24.2674 13.9522 24.2067C14.066 24.1459 14.1631 24.0581 14.2348 23.9509C14.3065 23.8436 14.3506 23.7204 14.3633 23.592C14.376 23.4637 14.3568 23.3342 14.3074 23.215L12.9284 19.881C13.7649 19.2941 14.464 18.5326 14.9774 17.6491C15.4909 16.7657 15.8065 15.7813 15.9024 14.764C16.366 14.6075 16.7692 14.3102 17.0559 13.9138C17.3425 13.5173 17.4984 13.0413 17.5018 12.552C17.5052 12.0628 17.356 11.5847 17.0749 11.1842C16.7938 10.7838 16.3958 10.481 15.9344 10.318ZM3.38645 1.818H14.3664V10.183H3.38745L3.38645 1.818ZM5.34345 22.731L6.20845 20.639C7.91787 21.3374 9.83302 21.3374 11.5424 20.639L12.4074 22.731H5.34345ZM8.87545 19.594C7.55609 19.5918 6.2815 19.1154 5.28415 18.2517C4.28679 17.388 3.63315 16.1945 3.44245 14.889H14.3104C14.1197 16.1947 13.4659 17.3883 12.4684 18.252C11.4708 19.1157 10.195 19.592 8.87545 19.594ZM15.1494 13.32H2.60244C2.39451 13.32 2.19511 13.2374 2.04808 13.0904C1.90105 12.9433 1.81845 12.7439 1.81845 12.536C1.81845 12.3281 1.90105 12.1287 2.04808 11.9816C2.19511 11.8346 2.39451 11.752 2.60244 11.752H15.1504C15.3584 11.752 15.5578 11.8346 15.7048 11.9816C15.8518 12.1287 15.9344 12.3281 15.9344 12.536C15.9344 12.7439 15.8518 12.9433 15.7048 13.0904C15.5578 13.2374 15.3574 13.32 15.1494 13.32Z" fill="#D0D0D0" stroke="white" stroke-width="0.5"/>
</svg>
