<svg width="14" height="25" viewBox="0 0 14 25" fill="none" xmlns="http://www.w3.org/2000/svg">
<path d="M9.10104 15.0401C9.10104 15.6477 8.85967 16.2304 8.43002 16.6601C8.00038 17.0897 7.41765 17.3311 6.81004 17.3311C6.20243 17.3311 5.61971 17.0897 5.19006 16.6601C4.76042 16.2304 4.51904 15.6477 4.51904 15.0401C4.51904 13.0791 6.81004 10.7881 6.81004 10.7881C6.81004 10.7881 9.10104 13.0791 9.10104 15.0401Z" stroke="#D0D0D0" stroke-miterlimit="10"/>
<path d="M9.96203 3.65V0.5H3.66203V3.65C2.73833 3.95816 1.93542 4.54994 1.36767 5.34105C0.799925 6.13216 0.496296 7.08225 0.500034 8.056V23.632H13.123V8.034C13.1268 7.06038 12.8234 6.11038 12.2558 5.31928C11.6882 4.52818 10.8856 3.93633 9.96203 3.628V3.65Z" stroke="#D0D0D0" stroke-miterlimit="10"/>
<path d="M1.55688 0.5H12.0659" stroke="#D0D0D0" stroke-miterlimit="10"/>
</svg>
